<svg width="133" height="120" viewBox="0 0 133 120" fill="none" xmlns="http://www.w3.org/2000/svg">
<path d="M108.458 9.4304H93.8937V6.45737C93.8937 5.77129 93.2078 5.08521 92.499 5.08521C91.7902 5.08521 91.1043 5.77129 91.1043 6.45737V9.4304H76.5398V6.45737C76.5398 5.77129 75.8539 5.08521 75.1451 5.08521C74.4363 5.08521 73.7504 5.77129 73.7504 6.45737V9.4304H59.186V6.45737C59.186 5.77129 58.5 5.08521 57.7912 5.08521C57.0825 5.08521 56.3965 5.77129 56.3965 6.45737V9.4304H41.8321V6.45737C41.8321 5.77129 41.1462 5.08521 40.4374 5.08521C39.7286 5.08521 39.0427 5.77129 39.0427 6.45737V9.4304H24.4782C23.7923 9.4304 23.0835 10.1165 23.0835 10.8026V118.06C23.0835 118.746 23.7694 119.433 24.4782 119.433H108.435C109.121 119.433 109.83 118.746 109.83 118.06V10.8026C110.059 10.1165 109.373 9.4304 108.435 9.4304H108.458ZM107.063 116.688H26.1016V12.4034H39.0655V15.3765C36.5276 16.0626 34.6756 18.3495 34.6756 20.8651C34.6756 24.0669 37.2135 26.5825 40.4602 26.5825C43.7069 26.5825 46.2449 24.0669 46.2449 20.8651C46.2449 18.1208 44.3929 16.0626 41.8549 15.3765V12.4034H56.4194V15.3765C53.8815 16.0626 52.0295 18.3495 52.0295 20.8651C52.0295 24.0669 54.5674 26.5825 57.8141 26.5825C61.0608 26.5825 63.5987 24.0669 63.5987 20.8651C63.5987 18.1208 61.7467 16.0626 59.2088 15.3765V12.4034H73.7733V15.3765C71.2353 16.0626 69.3834 18.3495 69.3834 20.8651C69.3834 24.0669 71.9213 26.5825 75.168 26.5825C78.4147 26.5825 80.9526 24.0669 80.9526 20.8651C80.9526 18.1208 79.1006 16.0626 76.5627 15.3765V12.4034H91.1271V15.3765C88.5892 16.0626 86.7372 18.3495 86.7372 20.8651C86.7372 24.0669 89.2751 26.5825 92.5218 26.5825C95.7686 26.5825 98.3065 24.0669 98.3065 20.8651C98.3065 18.1208 96.4545 16.0626 93.9166 15.3765V12.4034H107.109V116.688H107.063ZM40.6889 18.1208C42.3122 18.1208 43.7069 19.493 43.7069 21.0938C43.7069 22.6947 42.3122 24.0669 40.6889 24.0669C39.0655 24.0669 37.6708 22.466 37.6708 20.8651C37.6708 19.2643 39.0655 18.1208 40.6889 18.1208ZM58.0427 18.1208C59.6661 18.1208 61.0608 19.493 61.0608 21.0938C61.0608 22.6947 59.6661 24.0669 58.0427 24.0669C56.4194 24.0669 55.0247 22.6947 55.0247 21.0938C55.0247 19.2643 56.4194 18.1208 58.0427 18.1208ZM75.3966 18.1208C77.02 18.1208 78.4147 19.493 78.4147 21.0938C78.4147 22.6947 77.02 24.0669 75.3966 24.0669C73.7733 24.0669 72.3785 22.466 72.3785 20.8651C72.3785 19.2643 73.7733 18.1208 75.3966 18.1208ZM92.7505 18.1208C94.3738 18.1208 95.7686 19.493 95.7686 21.0938C95.7686 22.6947 94.3738 24.0669 92.7505 24.0669C91.1271 24.0669 89.7324 22.6947 89.7324 21.0938C89.7324 19.2643 91.1271 18.1208 92.7505 18.1208Z" fill="#4D4D4D"/>
<path d="M66.5941 81.0118C79.3065 81.0118 89.7326 70.7205 89.7326 58.1423C89.7326 45.5641 79.3294 35.2728 66.5941 35.2728C59.6434 35.2728 53.4015 38.2459 49.2402 43.0485C49.0115 43.2771 48.7829 43.2771 48.7829 43.5058C45.5362 47.3937 43.4556 52.4249 43.4556 57.9136C43.4556 70.7205 53.8587 81.0118 66.5941 81.0118ZM86.7145 56.5414H67.9888V38.0172C78.1633 38.7032 86.0286 46.7076 86.7145 56.5414ZM65.1993 38.0172V54.9406L52.2583 43.9632C55.505 40.7615 60.1235 38.4746 65.1993 38.0172ZM50.1548 46.2502L65.6566 59.0571H86.463C85.7771 69.3483 76.9744 77.5814 66.3426 77.5814C55.7107 77.5814 45.9935 68.6623 45.9935 57.4562C46.4508 53.5684 47.8455 49.6806 50.1548 46.2502Z" fill="#4D4D4D"/>
<path d="M94.1224 105.253H39.0656C38.3797 105.253 37.6709 105.939 37.6709 106.626C37.6709 107.312 38.3568 107.998 39.0656 107.998H94.1224C94.8084 107.998 95.5172 107.312 95.5172 106.626C95.5172 105.939 94.8312 105.253 94.1224 105.253Z" fill="#4D4D4D"/>
<path d="M94.1224 98.1638H39.0656C38.3797 98.1638 37.6709 98.8498 37.6709 99.5359C37.6709 100.222 38.3568 100.908 39.0656 100.908H94.1224C94.8084 100.908 95.5172 100.222 95.5172 99.5359C95.5172 98.6211 94.8312 98.1638 94.1224 98.1638Z" fill="#4D4D4D"/>
<path d="M39.0886 93.8191H67.9888C68.6747 93.8191 69.3835 93.133 69.3835 92.4469C69.3835 91.7608 68.6976 91.0748 67.9888 91.0748H39.0886C38.4026 91.0748 37.6938 91.7608 37.6938 92.4469C37.6938 93.133 38.3798 93.8191 39.0886 93.8191Z" fill="#4D4D4D"/>
<path d="M125.812 22.2376C121.88 22.2376 118.633 25.4393 118.633 29.3271C118.633 33.2149 121.88 36.4166 125.812 36.4166C129.745 36.4166 132.991 33.2149 132.991 29.3271C132.991 25.4393 129.745 22.2376 125.812 22.2376ZM125.812 33.6723C123.503 33.6723 121.422 31.8428 121.422 29.3271C121.422 26.8115 123.274 24.9819 125.812 24.9819C128.35 24.9819 130.202 27.0402 130.202 29.5558C130.202 32.0714 128.35 33.6723 125.812 33.6723Z" fill="#4D4D4D"/>
<path d="M10.1653 73.6934C4.60927 73.6934 -0.00927734 78.2673 -0.00927734 83.756C-0.00927734 89.2446 4.60927 93.8185 10.1653 93.8185C15.7212 93.8185 20.3398 89.2446 20.3398 83.756C20.3398 78.2673 15.7212 73.6934 10.1653 73.6934ZM10.1653 90.8455C6.23263 90.8455 2.98592 87.6438 2.98592 83.756C2.98592 79.8681 6.23263 76.6664 10.1653 76.6664C14.0979 76.6664 17.3446 79.8681 17.3446 83.756C17.3446 87.6438 14.0979 90.8455 10.1653 90.8455Z" fill="#4D4D4D"/>
<path d="M81.8673 0.96875C83.0105 0.96875 83.9479 1.88353 83.9479 3.027C83.9479 4.17048 83.0105 5.08525 81.8673 5.08525C80.724 5.08525 79.7866 4.17048 79.7866 3.027C79.7866 1.88353 80.724 0.96875 81.8673 0.96875Z" fill="#4D4D4D"/>
<path d="M123.732 8.05835C124.875 8.05835 125.812 8.97313 125.812 10.1166C125.812 11.2601 124.875 12.1749 123.732 12.1749C122.588 12.1749 121.651 11.2601 121.651 10.1166C121.651 8.97313 122.588 8.05835 123.732 8.05835Z" fill="#4D4D4D"/>
<path d="M117.947 56.7701C119.09 56.7701 120.027 57.6849 120.027 58.8283C120.027 59.9718 119.09 60.8866 117.947 60.8866C116.804 60.8866 115.866 59.9718 115.866 58.8283C115.866 57.6849 116.804 56.7701 117.947 56.7701Z" fill="#4D4D4D"/>
<path d="M123.732 102.509C124.875 102.509 125.812 103.424 125.812 104.568C125.812 105.711 124.875 106.626 123.732 106.626C122.588 106.626 121.651 105.711 121.651 104.568C121.651 103.424 122.588 102.509 123.732 102.509Z" fill="#4D4D4D"/>
<path d="M5.08942 11.0315C6.23263 11.0315 7.17006 11.9463 7.17006 13.0897C7.17006 14.2332 6.23263 15.148 5.08942 15.148C3.94622 15.148 3.00879 14.2332 3.00879 13.0897C3.00879 11.9463 3.94622 11.0315 5.08942 11.0315Z" fill="#4D4D4D"/>
<path d="M15.2637 45.3356C16.407 45.3356 17.3444 46.2504 17.3444 47.3938C17.3444 48.5373 16.407 49.4521 15.2637 49.4521C14.1205 49.4521 13.1831 48.5373 13.1831 47.3938C13.1831 46.2504 14.1205 45.3356 15.2637 45.3356Z" fill="#4D4D4D"/>
<path d="M10.8511 109.599C11.9943 109.599 12.9318 110.514 12.9318 111.657C12.9318 112.801 11.9943 113.715 10.8511 113.715C9.70794 113.715 8.77051 112.801 8.77051 111.657C8.77051 110.514 9.70794 109.599 10.8511 109.599Z" fill="#4D4D4D"/>
</svg>
