<svg width="98" height="94" viewBox="0 0 98 94" fill="none" xmlns="http://www.w3.org/2000/svg">
<path d="M49.6688 14.736C36.3104 14.736 25.4512 25.472 25.4512 38.672C25.4512 51.872 36.3104 62.608 49.6688 62.608C63.0272 62.608 73.8864 51.872 73.8864 38.672C73.8864 25.472 63.0272 14.736 49.6688 14.736ZM49.6688 60.32C37.56 60.32 27.5984 50.64 27.5984 38.496C27.5984 26.352 37.56 16.848 49.6688 16.848C61.7776 16.848 71.7392 26.528 71.7392 38.672C71.7392 50.816 61.76 60.32 49.6688 60.32Z" fill="#4D4D4D"/>
<path d="M49.669 3.12C29.9042 3.12 13.8882 18.96 13.8882 38.496C13.8882 54.336 24.2194 64.016 35.2546 74.928H22.9698C18.693 74.928 15.1378 78.448 15.1378 82.672C15.1378 86.896 18.693 90.416 22.9698 90.416H76.3858C80.6626 90.416 84.2178 86.896 84.2178 82.672C84.2178 78.448 80.6626 74.928 76.3858 74.928H64.101C75.3122 63.84 85.4674 54.16 85.4674 38.496C85.6434 19.136 69.4514 3.12 49.6866 3.12H49.669ZM17.4434 82.848C17.4434 79.856 19.9426 77.392 22.9698 77.392H37.5602C40.9394 80.912 44.5122 84.432 47.5394 88.48H22.9698C19.9426 88.304 17.4434 85.84 17.4434 82.848ZM81.8946 82.848C81.8946 85.84 79.3954 88.304 76.3682 88.304H51.9746C55.1778 84.256 58.557 80.736 61.9362 77.216H76.3506C79.3778 77.392 81.877 79.856 81.877 82.848H81.8946ZM49.669 87.6C35.7826 69.472 16.0178 59.968 16.0178 38.672C16.0178 20.368 31.1538 5.40799 49.669 5.40799C68.1842 5.40799 83.3202 20.368 83.3202 38.672C83.3202 59.968 63.5554 69.472 49.669 87.6Z" fill="#4D4D4D"/>
<path d="M49.6689 23.5359C41.1153 23.5359 34.0049 30.4 34.0049 39.024C34.0049 42.368 35.0785 45.36 36.8561 47.824C36.8561 47.824 36.8561 48 37.0321 48C39.8833 51.872 44.5121 54.512 49.6689 54.512C54.8257 54.512 59.4545 51.872 62.3057 48L62.4817 47.824C64.2593 45.36 65.3329 42.368 65.3329 39.024C65.3329 30.4 58.2049 23.5359 49.6689 23.5359ZM49.6689 52.048C45.3921 52.048 41.6609 50.112 39.1617 47.12C41.6609 43.952 45.5681 42.192 49.6689 42.192C53.7697 42.192 57.5009 43.952 60.1761 47.12C57.6769 50.112 53.9457 52.048 49.6689 52.048ZM45.2161 35.504C45.2161 33.04 47.1697 31.104 49.6689 31.104C52.1681 31.104 54.1217 33.04 54.1217 35.504C54.1217 37.968 52.1681 39.904 49.6689 39.904C47.1697 39.904 45.2161 37.968 45.2161 35.504ZM61.4257 45.184C59.4721 42.896 56.9729 41.312 54.1217 40.608C55.5473 39.376 56.4273 37.616 56.4273 35.68C56.4273 31.984 53.4001 28.992 49.6689 28.992C45.9377 28.992 42.9105 31.984 42.9105 35.68C42.9105 37.616 43.8081 39.552 45.2161 40.608C42.3649 41.488 39.8833 43.072 37.9121 45.184C36.8385 43.248 36.3105 41.136 36.3105 38.848C36.3105 31.632 42.3649 25.648 49.6689 25.648C56.9729 25.648 63.0273 31.632 63.0273 38.848C63.0273 41.136 62.4993 43.248 61.4257 45.184Z" fill="#4D4D4D"/>
<path d="M90.7999 2.59198C87.0687 2.59198 84.0415 5.58398 84.0415 9.27998C84.0415 12.976 87.0687 15.968 90.7999 15.968C94.5311 15.968 97.5583 12.976 97.5583 9.27998C97.5583 5.58398 94.5311 2.59198 90.7999 2.59198ZM90.7999 13.504C88.3007 13.504 86.3471 11.568 86.3471 9.10398C86.3471 6.63998 88.3007 4.70398 90.7999 4.70398C93.2991 4.70398 95.2527 6.63998 95.2527 9.10398C95.2527 11.568 93.2991 13.504 90.7999 13.504Z" fill="#4D4D4D"/>
<path d="M6.21439 64.192C3.18719 64.192 0.687988 66.656 0.687988 69.648C0.687988 72.64 3.18719 75.104 6.21439 75.104C9.24159 75.104 11.7408 72.64 11.7408 69.648C11.9168 66.656 9.43519 64.192 6.21439 64.192ZM6.21439 72.9919C4.43679 72.9919 2.83519 71.584 2.83519 69.648C2.83519 67.712 4.26079 66.304 6.21439 66.304C8.16799 66.304 9.59359 67.712 9.59359 69.648C9.59359 71.584 8.16799 72.9919 6.21439 72.9919Z" fill="#4D4D4D"/>
<path d="M2.48295 47.824C3.36295 47.824 4.08455 48.528 4.08455 49.408C4.08455 50.288 3.36295 50.992 2.48295 50.992C1.60295 50.992 0.881348 50.288 0.881348 49.408C0.881348 48.528 1.60295 47.824 2.48295 47.824Z" fill="#4D4D4D"/>
<path d="M73.6929 0.47998C74.5729 0.47998 75.2945 1.18398 75.2945 2.06398C75.2945 2.94398 74.5729 3.64798 73.6929 3.64798C72.8129 3.64798 72.0913 2.94398 72.0913 2.06398C72.0913 1.18398 72.8129 0.47998 73.6929 0.47998Z" fill="#4D4D4D"/>
<path d="M8.0098 3.82397C8.8898 3.82397 9.61141 4.52797 9.61141 5.40797C9.61141 6.28797 8.8898 6.99198 8.0098 6.99198C7.1298 6.99198 6.4082 6.28797 6.4082 5.40797C6.4082 4.52797 7.1298 3.82397 8.0098 3.82397Z" fill="#4D4D4D"/>
<path d="M93.6338 42.192C94.5138 42.192 95.2354 42.896 95.2354 43.776C95.2354 44.656 94.5138 45.36 93.6338 45.36C92.7538 45.36 92.0322 44.656 92.0322 43.776C92.0322 42.896 92.7538 42.192 93.6338 42.192Z" fill="#4D4D4D"/>
<path d="M12.4449 90.592C13.3249 90.592 14.0465 91.296 14.0465 92.176C14.0465 93.056 13.3249 93.76 12.4449 93.76C11.5649 93.76 10.8433 93.056 10.8433 92.176C10.8433 91.296 11.5649 90.592 12.4449 90.592Z" fill="#4D4D4D"/>
<path d="M82.5982 66.48C83.4782 66.48 84.1998 67.184 84.1998 68.064C84.1998 68.944 83.4782 69.648 82.5982 69.648C81.7182 69.648 80.9966 68.944 80.9966 68.064C80.9966 67.184 81.7182 66.48 82.5982 66.48Z" fill="#4D4D4D"/>
</svg>
