<svg width="101" height="96" viewBox="0 0 101 96" fill="none" xmlns="http://www.w3.org/2000/svg">
<path d="M96.9568 50.76L92.152 47.592L96.9568 44.424C97.3088 44.248 97.4848 43.896 97.4848 43.368C96.9568 38.264 95.7072 33.512 93.56 28.76C93.384 28.408 93.032 28.056 92.6624 28.056L86.784 27.88L89.4592 22.776C89.6352 22.424 89.6352 21.896 89.4592 21.72C86.432 17.672 82.8768 13.976 78.6 10.984C78.248 10.808 77.896 10.632 77.5264 10.984L72.3696 13.624L72.0176 7.992C72.0176 7.64 71.6656 7.288 71.3136 7.112C66.6848 5 61.704 3.768 56.5296 3.24C56.1776 3.24 55.6496 3.416 55.456 3.768L52.2528 8.52L49.2256 3.416C49.0496 3.064 48.6976 2.888 48.152 2.888C42.9952 3.416 38.1904 4.648 33.368 6.76C33.016 6.936 32.84 7.288 32.664 7.64L32.312 13.272L27.1552 10.632C26.8032 10.456 26.2576 10.456 26.0816 10.632C21.8048 13.624 18.2496 17.144 15.3984 21.368C15.2224 21.72 15.0464 22.072 15.3984 22.424L17.8976 27.528L12.1952 27.88C11.8432 27.88 11.4912 28.232 11.2976 28.584C9.16798 33.16 7.91838 38.088 7.37278 43.192C7.37278 43.544 7.54878 44.072 7.90078 44.248L12.7056 47.416L7.72478 50.76C7.37278 50.936 7.19678 51.288 7.19678 51.816C7.72478 56.92 8.97438 61.848 11.1216 66.424C11.2976 66.776 11.6496 66.952 12.0192 67.128L17.7216 67.48L15.2224 72.584C15.0464 72.936 15.0464 73.464 15.2224 73.64C18.0736 77.688 21.8048 81.384 25.9056 84.376C26.2576 84.552 26.6096 84.728 26.9792 84.376L32.136 81.736L32.488 87.368C32.488 87.72 32.84 88.072 33.2096 88.248C37.8384 90.36 42.8192 91.768 47.9936 92.12C48.3456 92.12 48.8912 91.944 49.0672 91.592L52.2704 86.84L55.4736 91.592C55.6496 91.944 56.0016 92.12 56.3712 92.12H56.5472C61.704 91.592 66.7024 90.36 71.3312 88.248C71.6832 88.072 71.8592 87.72 72.0352 87.368L72.3872 81.736L77.544 84.376C77.896 84.552 78.4416 84.552 78.6176 84.376C82.7184 81.384 86.4496 77.864 89.3008 73.64C89.4768 73.288 89.6528 72.936 89.3008 72.584L86.6256 67.48L92.328 67.128C92.68 67.128 93.0496 66.776 93.2256 66.424C95.3552 61.848 96.7808 56.92 97.1504 51.816C97.5024 51.288 97.3264 50.936 96.9744 50.76H96.9568ZM91.8 64.664L85.0416 65.016C84.3376 65.016 83.792 65.896 84.144 66.6L87.1712 72.584C84.496 76.104 81.4688 79.272 77.9136 81.736L71.6832 78.92C71.3312 78.744 70.9792 78.744 70.6096 78.92C70.2576 79.096 70.0816 79.448 70.0816 79.8L69.7296 86.488C65.6288 88.248 61.3696 89.48 57.0928 89.832L53.3616 84.2C53.1856 83.848 52.8336 83.672 52.464 83.672C52.0944 83.672 51.76 83.848 51.5664 84.2L47.8352 89.832C43.3824 89.304 39.1056 88.248 35.1984 86.488L34.8464 79.8C34.8464 79.448 34.6704 79.096 34.3184 78.92C33.9664 78.744 33.6144 78.744 33.2448 78.92L27.1904 81.912C23.6352 79.272 20.432 76.28 17.9328 72.76L20.96 66.776C21.136 66.424 21.136 66.072 20.96 65.72C20.784 65.368 20.432 65.192 20.0624 65.192L13.304 64.84C11.5264 60.792 10.4528 56.568 9.92478 52.344L15.6272 48.648C15.9792 48.472 16.1552 48.12 16.1552 47.768C16.1552 47.416 15.9792 47.064 15.6272 46.888L9.92478 43.192C10.4528 38.792 11.5264 34.568 13.304 30.52L20.0624 30.168C20.4144 30.168 20.784 29.992 20.96 29.64C21.136 29.288 21.136 28.936 20.96 28.584L17.9328 22.6C20.608 19.08 23.6352 15.912 27.1904 13.448L33.2448 16.44C33.5968 16.616 33.9488 16.616 34.3184 16.44C34.6704 16.264 34.8464 15.912 34.8464 15.56L35.0224 8.52C39.1232 6.76 43.3824 5.704 47.6592 5.176L51.3904 10.808C51.5664 11.16 51.9184 11.336 52.288 11.336C52.6576 11.336 53.0096 11.16 53.1856 10.808L56.9168 5.176C61.3696 5.704 65.6464 6.76 69.5536 8.52L69.9056 15.208C69.9056 15.56 70.0816 15.912 70.4336 16.088C70.7856 16.264 71.1552 16.264 71.5072 16.088L77.5616 13.096C81.1168 15.736 84.32 18.728 86.8192 22.248L83.792 28.232C83.616 28.584 83.616 28.936 83.792 29.288C83.968 29.64 84.32 29.816 84.6896 29.816L91.448 30.168C93.2256 34.216 94.2992 38.44 94.8272 42.84L89.1248 46.536C88.7728 46.712 88.5968 47.064 88.5968 47.416C88.5968 47.768 88.7728 48.12 89.1248 48.296L94.8272 51.992C94.6512 56.568 93.5776 60.792 91.8 64.664Z" fill="#4D4D4D"/>
<path d="M6.15824 14.68C7.03824 14.68 7.75984 15.384 7.75984 16.264C7.75984 17.144 7.03824 17.848 6.15824 17.848C5.27824 17.848 4.55664 17.144 4.55664 16.264C4.55664 15.384 5.27824 14.68 6.15824 14.68Z" fill="#4D4D4D"/>
<path d="M98.5586 19.08C99.4386 19.08 100.16 19.784 100.16 20.664C100.16 21.544 99.4386 22.248 98.5586 22.248C97.6786 22.248 96.957 21.544 96.957 20.664C96.957 19.784 97.6786 19.08 98.5586 19.08Z" fill="#4D4D4D"/>
<path d="M28.4048 0.424011C29.2848 0.424011 30.0064 1.12801 30.0064 2.00801C30.0064 2.88801 29.2848 3.59201 28.4048 3.59201C27.5248 3.59201 26.8032 2.88801 26.8032 2.00801C26.8032 1.12801 27.5248 0.424011 28.4048 0.424011Z" fill="#4D4D4D"/>
<path d="M98.5586 70.824C99.4386 70.824 100.16 71.528 100.16 72.408C100.16 73.288 99.4386 73.992 98.5586 73.992C97.6786 73.992 96.957 73.288 96.957 72.408C96.957 71.528 97.6786 70.824 98.5586 70.824Z" fill="#4D4D4D"/>
<path d="M82.8946 92.824C83.7746 92.824 84.4962 93.528 84.4962 94.408C84.4962 95.288 83.7746 95.992 82.8946 95.992C82.0146 95.992 81.293 95.288 81.293 94.408C81.293 93.528 82.0146 92.824 82.8946 92.824Z" fill="#4D4D4D"/>
<path d="M26.2754 91.592C27.1554 91.592 27.877 92.296 27.877 93.176C27.877 94.056 27.1554 94.76 26.2754 94.76C25.3954 94.76 24.6738 94.056 24.6738 93.176C24.6738 92.296 25.3954 91.592 26.2754 91.592Z" fill="#4D4D4D"/>
<path d="M93.5777 12.392C96.6049 12.392 99.1041 9.92804 99.1041 6.93604C99.1041 3.94404 96.6049 1.48004 93.5777 1.48004C90.5505 1.48004 88.0513 3.94404 88.0513 6.93604C88.0513 9.92804 90.5505 12.392 93.5777 12.392ZM93.5777 3.59204C95.3553 3.59204 96.9569 5.00004 96.9569 6.93604C96.9569 8.87204 95.5313 10.28 93.5777 10.28C91.6241 10.28 90.1985 8.69604 90.1985 6.93604C90.1985 5.17604 91.6241 3.59204 93.5777 3.59204Z" fill="#4D4D4D"/>
<path d="M7.93601 78.392C3.65921 78.392 0.104004 81.912 0.104004 86.136C0.104004 90.36 3.65921 93.88 7.93601 93.88C12.2128 93.88 15.768 90.36 15.768 86.136C15.768 81.912 12.2128 78.392 7.93601 78.392ZM7.93601 91.592C4.90881 91.592 2.4096 89.128 2.4096 86.136C2.4096 83.144 4.90881 80.68 7.93601 80.68C10.9632 80.68 13.4624 83.144 13.4624 86.136C13.4624 89.128 10.9632 91.592 7.93601 91.592Z" fill="#4D4D4D"/>
<path d="M52.4463 19.256C36.6063 19.256 23.7759 31.928 23.7759 47.592C23.7759 63.256 36.5887 75.928 52.4463 75.928C68.3039 75.928 81.1167 63.256 81.1167 47.592C81.1167 31.928 68.1279 19.256 52.4463 19.256ZM45.6879 72.936V63.256C45.6879 62.904 45.5119 62.376 44.9663 62.2C39.0879 59.384 35.5327 53.752 35.5327 47.416C35.5327 41.08 38.9119 35.624 44.4383 32.808V47.416C44.4383 47.944 44.9663 48.472 45.5119 48.472H58.8703C59.3983 48.472 59.9439 47.944 59.9439 47.416V32.808C65.4703 35.624 68.8495 41.256 68.8495 47.416C68.8495 53.576 65.2943 59.384 59.4159 62.2C59.0639 62.376 58.7119 62.728 58.7119 63.256V72.936C54.7871 73.992 50.1583 73.992 45.7231 72.936H45.6879ZM61.3519 72.232V63.96C67.5823 60.616 71.3135 54.456 71.3135 47.416C71.3135 39.848 66.6847 32.984 59.5567 30.168C59.2047 29.992 58.8527 29.992 58.4831 30.344C58.1311 30.52 57.9551 30.872 57.9551 31.224V46.36H46.9199V31.224C46.9199 30.872 46.7439 30.52 46.3919 30.344C46.0399 30.168 45.6879 30.168 45.3183 30.168C38.1903 32.984 33.5615 39.848 33.5615 47.416C33.5615 54.456 37.2927 60.616 43.5231 63.96V72.232C33.3679 68.536 25.9055 58.856 25.9055 47.592C25.9055 33.16 37.8383 21.368 52.4287 21.368C67.0191 21.368 78.7759 33.16 78.7759 47.592C78.7759 58.856 71.4719 68.536 61.3343 72.232H61.3519Z" fill="#4D4D4D"/>
</svg>
