<svg width="106" height="91" viewBox="0 0 106 91" fill="none" xmlns="http://www.w3.org/2000/svg">
<path d="M76.9888 1.12C77.8688 1.12 78.5904 1.82399 78.5904 2.70399C78.5904 3.58399 77.8688 4.28799 76.9888 4.28799C76.1088 4.28799 75.3872 3.58399 75.3872 2.70399C75.3872 1.82399 76.1088 1.12 76.9888 1.12Z" fill="#4D4D4D"/>
<path d="M15.917 4.46399C16.797 4.46399 17.5186 5.16799 17.5186 6.04799C17.5186 6.92799 16.797 7.63199 15.917 7.63199C15.037 7.63199 14.3154 6.92799 14.3154 6.04799C14.3154 5.16799 15.037 4.46399 15.917 4.46399Z" fill="#4D4D4D"/>
<path d="M29.2754 34.208C30.1554 34.208 30.877 34.912 30.877 35.792C30.877 36.672 30.1554 37.376 29.2754 37.376C28.3954 37.376 27.6738 36.672 27.6738 35.792C27.6738 34.912 28.3954 34.208 29.2754 34.208Z" fill="#4D4D4D"/>
<path d="M69.333 41.9519C70.213 41.9519 70.9346 42.6559 70.9346 43.5359C70.9346 44.4159 70.213 45.1199 69.333 45.1199C68.453 45.1199 67.7314 44.4159 67.7314 43.5359C67.7314 42.6559 68.453 41.9519 69.333 41.9519Z" fill="#4D4D4D"/>
<path d="M50.2896 78.208C51.1696 78.208 51.8912 78.912 51.8912 79.792C51.8912 80.672 51.1696 81.376 50.2896 81.376C49.4096 81.376 48.688 80.672 48.688 79.792C48.688 78.912 49.4096 78.208 50.2896 78.208Z" fill="#4D4D4D"/>
<path d="M100.485 18.72C101.365 18.72 102.087 19.424 102.087 20.304C102.087 21.184 101.365 21.888 100.485 21.888C99.6049 21.888 98.8833 21.184 98.8833 20.304C98.8833 19.424 99.6049 18.72 100.485 18.72Z" fill="#4D4D4D"/>
<path d="M105.466 70.992C105.466 60.432 96.7364 51.808 86.0532 51.808C75.37 51.808 66.4644 60.432 66.4644 70.992C66.4644 81.552 75.194 90.176 85.8772 90.176C96.5604 90.176 105.466 81.552 105.466 70.992ZM85.8772 53.92C95.3108 53.92 103.143 61.488 103.143 70.992C103.143 74.16 102.245 76.976 100.82 79.616C98.1444 76.448 94.5892 74.336 90.858 73.28C92.8116 71.872 94.2372 69.408 94.2372 66.768C94.2372 62.368 90.506 58.672 86.0532 58.672C81.6004 58.672 77.8691 62.368 77.8691 66.768C77.8691 69.408 79.1188 71.872 81.2484 73.28C77.3236 74.336 73.7684 76.448 71.2868 79.616C69.8612 77.152 68.9636 74.16 68.9636 70.992C68.7876 61.488 76.4436 53.92 85.8772 53.92ZM79.9987 66.768C79.9987 63.6 82.674 60.96 85.8772 60.96C89.0804 60.96 91.7555 63.6 91.7555 66.768C91.7555 69.936 89.0804 72.576 85.8772 72.576C82.674 72.576 79.9987 70.112 79.9987 66.768ZM85.8772 88.064C80.3508 88.064 75.37 85.424 72.3428 81.552C75.546 77.504 80.7028 75.04 85.8772 75.04C91.0516 75.04 96.2084 77.504 99.4116 81.552C96.3844 85.424 91.4036 88.064 85.8772 88.064Z" fill="#4D4D4D"/>
<path d="M72.0082 19.248C72.0082 8.68796 63.2786 0.0639648 52.5954 0.0639648C41.9122 0.0639648 33.1826 8.68796 33.1826 19.248C33.1826 29.808 41.1906 37.904 51.5218 38.432V58.848L43.8658 66.416C43.5138 66.768 43.5138 67.472 43.8658 68C44.0418 68.176 44.3938 68.352 44.5698 68.352C44.7458 68.352 45.0978 68.176 45.2738 68L52.5778 60.784L59.8818 68C60.2338 68.352 60.9554 68.352 61.4834 68C61.8354 67.648 61.8354 66.944 61.4834 66.416L53.8274 58.848V38.432C63.9826 37.904 71.9906 29.456 71.9906 19.248H72.0082ZM52.5954 2.17597C62.029 2.17597 69.861 9.74396 69.861 19.248C69.861 22.416 68.9634 25.232 67.5554 27.872C64.8802 24.704 61.325 22.592 57.5762 21.536C59.5298 20.128 60.9554 17.664 60.9554 15.024C60.9554 10.624 57.2242 6.92796 52.7714 6.92796C48.3186 6.92796 44.5874 10.624 44.5874 15.024C44.5874 17.664 45.837 20.128 47.9666 21.536C44.0418 22.592 40.4866 24.704 38.005 27.872C36.5794 25.408 35.6994 22.416 35.6994 19.248C35.3474 9.91996 43.0034 2.17597 52.613 2.17597H52.5954ZM46.541 15.024C46.541 11.856 49.2162 9.21597 52.4194 9.21597C55.6226 9.21597 58.2978 11.856 58.2978 15.024C58.2978 18.192 55.6226 20.832 52.4194 20.832C49.2162 21.008 46.541 18.368 46.541 15.024ZM38.885 29.808C42.0882 25.76 47.245 23.296 52.4194 23.296C57.5938 23.296 62.7506 25.76 65.9538 29.808C62.7506 33.856 57.9458 36.32 52.4194 36.32C46.893 36.32 42.0882 33.68 38.885 29.808Z" fill="#4D4D4D"/>
<path d="M39.7826 70.992C39.7826 60.432 31.053 51.808 20.3698 51.808C9.68663 51.808 0.957031 60.432 0.957031 70.992C0.957031 81.552 9.51063 90.176 20.3698 90.176C31.229 90.176 39.7826 81.552 39.7826 70.992ZM20.3698 53.92C29.8034 53.92 37.6354 61.488 37.6354 70.992C37.6354 74.16 36.7378 76.976 35.3298 79.616C32.6546 76.448 29.0994 74.336 25.3682 73.28C27.3218 71.872 28.7474 69.408 28.7474 66.768C28.7474 62.368 25.0162 58.672 20.5634 58.672C16.1106 58.672 12.3794 62.368 12.3794 66.768C12.3794 69.408 13.629 71.872 15.7586 73.28C11.8338 74.336 8.27863 76.448 5.79703 79.616C4.37143 77.152 3.47383 74.16 3.47383 70.992C3.12183 61.488 10.7778 53.92 20.3874 53.92H20.3698ZM14.3154 66.768C14.3154 63.6 16.9906 60.96 20.1938 60.96C23.397 60.96 26.0722 63.6 26.0722 66.768C26.0722 69.936 23.397 72.576 20.1938 72.576C16.9906 72.576 14.3154 70.112 14.3154 66.768ZM20.3698 88.064C14.8434 88.064 9.86263 85.424 6.83543 81.552C10.0386 77.504 15.1954 75.04 20.3698 75.04C25.5442 75.04 30.701 77.504 33.9042 81.552C30.701 85.424 25.8962 88.064 20.3698 88.064Z" fill="#4D4D4D"/>
<path d="M91.0516 41.7759C96.0324 41.7759 99.9572 37.9039 99.9572 32.9759C99.9572 28.0479 96.0324 24.1759 91.0516 24.1759C86.0708 24.1759 82.146 28.0479 82.146 32.9759C82.146 37.9039 86.0708 41.7759 91.0516 41.7759ZM91.0516 26.4639C94.7828 26.4639 97.81 29.4559 97.81 33.1519C97.81 36.8479 94.7828 39.8399 91.0516 39.8399C87.3204 39.8399 84.2932 36.6719 84.2932 32.9759C84.2932 29.2799 87.3204 26.4639 91.0516 26.4639Z" fill="#4D4D4D"/>
<path d="M14.1393 43.008C17.8705 43.008 20.8977 40.016 20.8977 36.32C20.8977 32.624 17.8705 29.632 14.1393 29.632C10.4081 29.632 7.38086 32.624 7.38086 36.32C7.38086 40.016 10.5841 43.008 14.1393 43.008ZM14.1393 31.92C16.6385 31.92 18.5921 33.856 18.5921 36.32C18.5921 38.784 16.6385 40.72 14.1393 40.72C11.6401 40.72 9.68646 38.784 9.68646 36.32C9.68646 33.856 11.6401 31.92 14.1393 31.92Z" fill="#4D4D4D"/>
</svg>
