<svg width="26" height="26" viewBox="0 0 26 26" fill="none" xmlns="http://www.w3.org/2000/svg">
<path d="M13 18.1086L18 13.1086L16.25 11.3586L14.25 13.3586V8.10864H11.75V13.3586L9.75 11.3586L8 13.1086L13 18.1086ZM13 25.6086C11.2708 25.6086 9.64583 25.2805 8.125 24.6243C6.60417 23.968 5.28125 23.0774 4.15625 21.9524C3.03125 20.8274 2.14063 19.5045 1.48438 17.9836C0.828125 16.4628 0.5 14.8378 0.5 13.1086C0.5 11.3795 0.828125 9.75448 1.48438 8.23364C2.14063 6.71281 3.03125 5.38989 4.15625 4.26489C5.28125 3.13989 6.60417 2.24927 8.125 1.59302C9.64583 0.936768 11.2708 0.608643 13 0.608643C14.7292 0.608643 16.3542 0.936768 17.875 1.59302C19.3958 2.24927 20.7188 3.13989 21.8438 4.26489C22.9688 5.38989 23.8594 6.71281 24.5156 8.23364C25.1719 9.75448 25.5 11.3795 25.5 13.1086C25.5 14.8378 25.1719 16.4628 24.5156 17.9836C23.8594 19.5045 22.9688 20.8274 21.8438 21.9524C20.7188 23.0774 19.3958 23.968 17.875 24.6243C16.3542 25.2805 14.7292 25.6086 13 25.6086ZM13 23.1086C15.7917 23.1086 18.1562 22.1399 20.0938 20.2024C22.0312 18.2649 23 15.9003 23 13.1086C23 10.317 22.0312 7.95239 20.0938 6.01489C18.1562 4.07739 15.7917 3.10864 13 3.10864C10.2083 3.10864 7.84375 4.07739 5.90625 6.01489C3.96875 7.95239 3 10.317 3 13.1086C3 15.9003 3.96875 18.2649 5.90625 20.2024C7.84375 22.1399 10.2083 23.1086 13 23.1086Z" fill="white"/>
</svg>
