<svg width="20" height="20" viewBox="0 0 20 20" fill="none" xmlns="http://www.w3.org/2000/svg">
<path d="M5.55556 16.6667H7.22222V14.4444H9.44444V12.7778H7.22222V10.5556H5.55556V12.7778H3.33333V14.4444H5.55556V16.6667ZM11.1111 15.8333H16.6667V14.1667H11.1111V15.8333ZM11.1111 13.0556H16.6667V11.3889H11.1111V13.0556ZM12.3333 8.83333L13.8889 7.27778L15.4444 8.83333L16.6111 7.66667L15.0556 6.05556L16.6111 4.5L15.4444 3.33333L13.8889 4.88889L12.3333 3.33333L11.1667 4.5L12.7222 6.05556L11.1667 7.66667L12.3333 8.83333ZM3.61111 6.88889H9.16667V5.22222H3.61111V6.88889ZM2.22222 20C1.61111 20 1.08796 19.7824 0.652778 19.3472C0.217593 18.912 0 18.3889 0 17.7778V2.22222C0 1.61111 0.217593 1.08796 0.652778 0.652778C1.08796 0.217593 1.61111 0 2.22222 0H17.7778C18.3889 0 18.912 0.217593 19.3472 0.652778C19.7824 1.08796 20 1.61111 20 2.22222V17.7778C20 18.3889 19.7824 18.912 19.3472 19.3472C18.912 19.7824 18.3889 20 17.7778 20H2.22222ZM2.22222 17.7778H17.7778V2.22222H2.22222V17.7778Z" fill="#D76B07"/>
</svg>
