<svg width="17" height="17" viewBox="0 0 17 17" fill="none" xmlns="http://www.w3.org/2000/svg">
<path d="M14.4075 17C12.6367 17 10.8871 16.614 9.15875 15.8419C7.43042 15.0698 5.85792 13.9754 4.44125 12.5588C3.02458 11.1421 1.93021 9.56958 1.15813 7.84125C0.386042 6.11292 0 4.36333 0 2.5925C0 2.3375 0.085 2.125 0.255 1.955C0.425 1.785 0.6375 1.7 0.8925 1.7H4.335C4.53333 1.7 4.71042 1.76729 4.86625 1.90188C5.02208 2.03646 5.11417 2.19583 5.1425 2.38L5.695 5.355C5.72333 5.58167 5.71625 5.77292 5.67375 5.92875C5.63125 6.08458 5.55333 6.21917 5.44 6.3325L3.37875 8.415C3.66208 8.93917 3.99854 9.44563 4.38812 9.93437C4.77771 10.4231 5.20625 10.8942 5.67375 11.3475C6.11292 11.7867 6.57333 12.194 7.055 12.5694C7.53667 12.9448 8.04667 13.2883 8.585 13.6L10.5825 11.6025C10.71 11.475 10.8765 11.3794 11.0819 11.3156C11.2873 11.2519 11.4892 11.2342 11.6875 11.2625L14.62 11.8575C14.8183 11.9142 14.9812 12.0169 15.1088 12.1656C15.2362 12.3144 15.3 12.4808 15.3 12.665V16.1075C15.3 16.3625 15.215 16.575 15.045 16.745C14.875 16.915 14.6625 17 14.4075 17ZM2.57125 6.8L3.97375 5.3975L3.6125 3.4H1.72125C1.79208 3.98083 1.89125 4.55458 2.01875 5.12125C2.14625 5.68792 2.33042 6.2475 2.57125 6.8ZM10.1788 14.4075C10.7313 14.6483 11.2944 14.8396 11.8681 14.9813C12.4419 15.1229 13.0192 15.215 13.6 15.2575V13.3875L11.6025 12.9838L10.1788 14.4075ZM12.75 8.5C11.5742 8.5 10.5719 8.08563 9.74313 7.25688C8.91438 6.42813 8.5 5.42583 8.5 4.25C8.5 3.07417 8.91438 2.07188 9.74313 1.24312C10.5719 0.414375 11.5742 0 12.75 0C13.9258 0 14.9281 0.414375 15.7569 1.24312C16.5856 2.07188 17 3.07417 17 4.25C17 5.42583 16.5856 6.42813 15.7569 7.25688C14.9281 8.08563 13.9258 8.5 12.75 8.5ZM12.325 6.8H13.175V3.4H12.325V6.8ZM12.75 2.55C12.8633 2.55 12.9625 2.5075 13.0475 2.4225C13.1325 2.3375 13.175 2.23833 13.175 2.125C13.175 2.01167 13.1325 1.9125 13.0475 1.8275C12.9625 1.7425 12.8633 1.7 12.75 1.7C12.6367 1.7 12.5375 1.7425 12.4525 1.8275C12.3675 1.9125 12.325 2.01167 12.325 2.125C12.325 2.23833 12.3675 2.3375 12.4525 2.4225C12.5375 2.5075 12.6367 2.55 12.75 2.55Z" fill="#D76B07"/>
</svg>
