<svg width="24" height="38" viewBox="0 0 24 38" xmlns="http://www.w3.org/2000/svg">
<path d="M11.9695 37.0834C8.50522 37.0834 5.67826 36.5748 3.4886 35.5575C1.29893 34.5403 0.204102 33.2269 0.204102 31.6175C0.204102 30.5547 0.677984 29.6285 1.62575 28.839C2.57351 28.0495 3.88078 27.427 5.54754 26.9715L6.67505 30.4332C6.11946 30.5851 5.6129 30.7749 5.15536 31.0026C4.69782 31.2304 4.38734 31.4353 4.22393 31.6175C4.64879 32.1034 5.62924 32.5285 7.16527 32.8929C8.70131 33.2573 10.3027 33.4395 11.9695 33.4395C13.6362 33.4395 15.2458 33.2573 16.7982 32.8929C18.3505 32.5285 19.3392 32.1034 19.764 31.6175C19.6006 31.4353 19.2901 31.2304 18.8326 31.0026C18.375 30.7749 17.8685 30.5851 17.3129 30.4332L18.4404 26.9715C20.1072 27.427 21.4063 28.0495 22.3377 28.839C23.2691 29.6285 23.7348 30.5547 23.7348 31.6175C23.7348 33.2269 22.64 34.5403 20.4503 35.5575C18.2607 36.5748 15.4337 37.0834 11.9695 37.0834ZM11.9695 24.9218C12.5577 23.9197 13.1787 23.0011 13.8323 22.1661C14.4859 21.331 15.1232 20.5339 15.7442 19.7747C16.9534 18.3172 17.9175 17.0038 18.6365 15.8347C19.3555 14.6656 19.715 13.2156 19.715 11.4848C19.715 9.4806 18.9633 7.78009 17.46 6.38325C15.9566 4.9864 14.1264 4.28798 11.9695 4.28798C9.81248 4.28798 7.98231 4.9864 6.47896 6.38325C4.97561 7.78009 4.22393 9.4806 4.22393 11.4848C4.22393 13.2156 4.58343 14.6656 5.30243 15.8347C6.02142 17.0038 6.98553 18.3172 8.19474 19.7747C8.81569 20.5339 9.45298 21.331 10.1066 22.1661C10.7602 23.0011 11.3812 23.9197 11.9695 24.9218ZM11.9695 31.6175C11.61 31.6175 11.2832 31.5188 10.989 31.3215C10.6949 31.1241 10.4825 30.8584 10.3517 30.5243C9.60005 28.3683 8.65229 26.5616 7.50843 25.104C6.36458 23.6464 5.2534 22.2496 4.17491 20.9135C3.1291 19.5773 2.22219 18.1957 1.45417 16.7685C0.686155 15.3413 0.302146 13.58 0.302146 11.4848C0.302146 8.44815 1.42966 5.88221 3.68469 3.78694C5.93972 1.69168 8.70131 0.644043 11.9695 0.644043C15.2376 0.644043 17.9992 1.69168 20.2542 3.78694C22.5093 5.88221 23.6368 8.44815 23.6368 11.4848C23.6368 13.58 23.2609 15.3413 22.5093 16.7685C21.7576 18.1957 20.8425 19.5773 19.764 20.9135C18.7182 22.2496 17.6152 23.6464 16.455 25.104C15.2948 26.5616 14.3389 28.3683 13.5872 30.5243C13.4565 30.8584 13.244 31.1241 12.9499 31.3215C12.6558 31.5188 12.329 31.6175 11.9695 31.6175ZM11.9695 15.3564C13.1133 15.3564 14.0938 14.9769 14.9108 14.2177C15.7278 13.4586 16.1364 12.5476 16.1364 11.4848C16.1364 10.4219 15.7278 9.51096 14.9108 8.75181C14.0938 7.99265 13.1133 7.61308 11.9695 7.61308C10.8256 7.61308 9.84516 7.99265 9.02812 8.75181C8.21108 9.51096 7.80256 10.4219 7.80256 11.4848C7.80256 12.5476 8.21108 13.4586 9.02812 14.2177C9.84516 14.9769 10.8256 15.3564 11.9695 15.3564Z"/>
</svg>
