<svg width="67" height="100" viewBox="0 0 67 100" fill="none" xmlns="http://www.w3.org/2000/svg">
<g clip-path="url(#clip0_1_702)">
<path d="M2.26218 90.3443C2.21981 90.3168 2.1763 90.2882 2.13623 90.2607C2.17859 90.2882 2.22096 90.3157 2.26218 90.3443Z" fill="#E47D64"/>
<path d="M5.15327 92.1534C4.73764 91.9072 4.34378 91.6691 3.9751 91.4424C4.36439 91.6851 4.75825 91.921 5.15327 92.1534Z" fill="#E47D64"/>
<path d="M7.07784 93.2469C6.86258 93.1279 6.64848 93.0099 6.44238 92.8943C6.6542 93.0122 6.86487 93.1313 7.07784 93.2469Z" fill="#E47D64"/>
<path d="M3.97507 91.4425C3.39916 91.0841 2.82324 90.7223 2.26221 90.3445C2.75454 90.6731 3.32588 91.0418 3.97507 91.4425Z" fill="#F8D5D0"/>
<path d="M6.44157 92.8941C6.00763 92.6537 5.57942 92.4052 5.15234 92.1533C5.55881 92.3938 5.98931 92.6411 6.44157 92.8941Z" fill="#F8D5D0"/>
<path d="M0.123535 88.8319C0.123535 88.8319 0.832268 89.386 2.13638 90.2608C1.45398 89.7982 0.785324 89.3196 0.123535 88.8296V88.833V88.8319Z" fill="#F8D5D0"/>
<path d="M56.1339 29.4736C55.5981 29.3946 55.0508 29.6304 54.5481 30.1033C53.4455 17.2534 44.8961 11.3694 34.004 11.3694C33.6812 11.3694 33.3629 11.3774 33.0411 11.3877C22.5155 11.7278 13.6077 17.6896 12.4959 30.2796C11.9749 29.509 11.3544 29.0728 10.7304 29.1335C9.32434 29.2697 8.42555 31.8619 8.72209 34.9247C9.01978 37.9875 10.3995 40.3599 11.8032 40.2236C12.2555 40.1801 12.655 39.879 12.9802 39.3924C15.198 50.9737 23.3089 59.6147 33.04 59.893C33.2014 59.8975 33.3606 59.9078 33.522 59.9078C43.1695 59.9078 51.3056 51.6859 53.8451 40.4469C54.0443 40.5843 54.2562 40.6736 54.4874 40.7068C56.0194 40.9312 57.6292 38.5978 58.0838 35.4961C58.5383 32.3932 57.6636 29.6968 56.1316 29.4724L56.1339 29.4736Z" fill="#4D4D4D"/>
<path d="M54.6676 67.2242V76.9747H47.3181V63.1436C46.5601 62.8951 45.7735 62.681 44.9572 62.507L43.447 60.8067C40.7323 62.1646 37.2974 62.9741 33.5625 62.9741C29.8276 62.9741 26.0767 62.0868 23.3059 60.6155L21.624 62.507L21.9583 62.8619C21.3892 62.9798 20.4561 63.2031 19.2871 63.5924V76.9747H11.9376V67.2872C6.72569 70.9408 1.29283 77.4281 -0.000976562 88.8297C0.659668 89.3197 1.32718 89.7983 2.00958 90.2609C2.05194 90.2872 2.09431 90.317 2.13782 90.3445C2.69999 90.7223 3.27477 91.0841 3.85068 91.4425C4.21936 91.6703 4.61094 91.9085 5.02885 92.1535C5.45478 92.4043 5.88299 92.6539 6.31693 92.8943C6.52417 93.0099 6.73714 93.1279 6.95124 93.2469C8.0756 93.8515 9.22514 94.4183 10.3919 94.9484V78.2708H57.0823V95.0285C60.3993 93.5401 63.5502 91.7436 66.4974 89.6724C66.5329 89.6426 66.5695 89.6163 66.6039 89.5865C66.6039 89.5865 64.3781 75.2355 54.6653 67.2231L54.6676 67.2242Z" fill="#4D4D4D"/>
<path d="M19.2883 76.9736V63.5913C17.3075 64.2497 14.6535 65.382 11.9388 67.2861L10.4526 76.9736H19.2883Z" fill="#D76B07"/>
<path d="M57.1703 76.9735L54.6674 67.223C52.579 65.5021 50.1471 64.0732 47.3179 63.1423V76.9735H57.1703Z" fill="#D76B07"/>
<path d="M16.8412 79.8418H13.9594C13.0033 79.8418 12.2305 80.6169 12.2305 81.5718V81.8604C12.2305 82.8153 13.0033 83.5893 13.9594 83.5893H16.8412C17.795 83.5893 18.5701 82.8141 18.5701 81.8604V81.5718C18.5701 80.6169 17.795 79.8418 16.8412 79.8418Z" fill="#4D4D4D"/>
<path d="M33.0494 78.271H10.394V94.9485C16.9261 97.9071 24.1164 99.6624 31.6846 99.9463C32.1392 99.9635 32.5915 99.9795 33.0494 99.9898C33.3128 99.9967 33.5784 100.001 33.8418 100.001C34.286 100.001 34.7245 99.9784 35.1642 99.9681C42.9614 99.7894 50.3659 98.0422 57.0845 95.0298V78.2721H33.0494V78.271ZM18.5714 81.8593C18.5714 82.8142 17.7962 83.5882 16.8425 83.5882H13.9606C13.0046 83.5882 12.2317 82.8131 12.2317 81.8593V81.5708C12.2317 80.6159 13.0046 79.8407 13.9606 79.8407H16.8425C17.7962 79.8407 18.5714 80.6159 18.5714 81.5708V81.8593ZM55.4633 81.5708C55.4633 82.5257 54.6881 83.2997 53.7344 83.2997H50.8525C49.8964 83.2997 49.1213 82.5245 49.1213 81.5708V81.2822C49.1213 80.3273 49.8964 79.5534 50.8525 79.5534H53.7344C54.6881 79.5534 55.4633 80.3273 55.4633 81.2822V81.5708Z" fill="#D76B07"/>
<path d="M53.7332 79.5544H50.8513C49.8953 79.5544 49.1201 80.3284 49.1201 81.2833V81.5719C49.1201 82.5268 49.8953 83.3008 50.8513 83.3008H53.7332C54.6869 83.3008 55.4621 82.5256 55.4621 81.5719V81.2833C55.4621 80.3284 54.6869 79.5544 53.7332 79.5544Z" fill="#4D4D4D"/>
<path d="M56.8854 22.4448L56.7331 22.5787C56.1033 20.2304 52.8608 9.6292 44.4007 4.16658L41.1879 14.54C40.7334 8.85291 41.552 4.13795 42.2355 2.05526C39.5277 0.733976 36.3584 -0.0594837 32.6694 0.00348934V27.122H32.6636V0.00348934C28.9723 -0.0594837 25.8042 0.733976 23.0952 2.05412C23.781 4.13566 24.5997 8.85063 24.144 14.5388L20.9289 4.16543C12.4699 9.62806 9.22853 20.2293 8.5988 22.5776L8.44766 22.4436C8.44766 22.4436 5.20513 22.6108 4.63379 27.9566L14.9304 33.1365H50.4026L60.6992 27.9566C60.1268 22.6108 56.8865 22.4436 56.8865 22.4436L56.8854 22.4448Z" fill="#D76B07"/>
</g>
<defs>
<clipPath id="clip0_1_702">
<rect width="66.606" height="100" fill="white"/>
</clipPath>
</defs>
</svg>
