<svg width="72" height="100" viewBox="0 0 72 100" fill="none" xmlns="http://www.w3.org/2000/svg">
<g clip-path="url(#clip0_1_725)">
<path d="M69.2172 56.7937H62.792C62.792 56.7937 63.0868 49.9947 56.4376 49.9947C55.8303 49.9947 55.2773 50.0549 54.7726 50.1575L54.7643 50.1492C53.7279 50.3308 52.5876 51.0583 52.4049 51.1798C49.7258 53.1254 49.6433 56.7949 49.6433 56.7949H22.1585C22.1585 56.7949 22.2658 54.2326 20.8131 52.2552C20.299 51.6114 19.7389 51.1362 19.1635 50.7883C19.0798 50.7412 18.9961 50.6952 18.9088 50.6515L18.9147 50.6456C18.0598 50.1846 17.1884 49.99 16.4031 49.9358L16.3347 50.0136C16.1602 50.0018 15.9881 49.9947 15.8029 49.9947C9.15608 49.9947 9.00869 56.7937 9.00869 56.7937H2.5788C1.16146 56.7937 0 57.9481 0 59.3713V97.4224C0 98.8433 1.16146 100 2.5788 100H69.2172C70.6475 100 71.7995 98.8433 71.7995 97.4224V59.3713C71.7995 57.9469 70.6475 56.7937 69.2172 56.7937ZM10.4248 92.6893C10.4248 94.1149 9.27046 95.2717 7.84487 95.2717H6.12685C4.69773 95.2717 3.55041 94.1149 3.55041 92.6893V62.8121C3.55041 61.3865 4.6989 60.2345 6.12685 60.2345H7.84487C9.26928 60.2345 10.4248 61.3877 10.4248 62.8121V92.6893ZM15.4704 53.5051C18.2414 53.5051 18.7579 56.7937 18.7579 56.7937H12.9977C12.9977 56.7937 12.6994 53.5051 15.4704 53.5051ZM21.9911 92.6893C21.9911 94.1149 20.832 95.2717 19.4088 95.2717H17.6908C16.2663 95.2717 15.1096 94.1149 15.1096 92.6893V62.8121C15.1096 61.3865 16.2652 60.2345 17.6908 60.2345H19.4088C20.832 60.2345 21.9911 61.3877 21.9911 62.8121V92.6893ZM33.5574 92.6893C33.5574 94.1149 32.3994 95.2717 30.9739 95.2717H29.2558C27.8279 95.2717 26.6806 94.1149 26.6806 92.6893V62.8121C26.6806 61.3865 27.8279 60.2345 29.2558 60.2345H30.9739C32.3994 60.2345 33.5574 61.3877 33.5574 62.8121V92.6893ZM45.1201 92.6893C45.1201 94.1149 43.9633 95.2717 42.5401 95.2717H40.8197C39.3977 95.2717 38.2409 94.1149 38.2409 92.6893V62.8121C38.2409 61.3865 39.3977 60.2345 40.8197 60.2345H42.5401C43.9633 60.2345 45.1201 61.3877 45.1201 62.8121V92.6893ZM56.6864 92.6893C56.6864 94.1149 55.5284 95.2717 54.1064 95.2717H52.3872C50.9604 95.2717 49.8084 94.1149 49.8084 92.6893V62.8121C49.8084 61.3865 50.9604 60.2345 52.3872 60.2345H54.1064C55.5284 60.2345 56.6864 61.3877 56.6864 62.8121V92.6893ZM53.6312 56.7937C53.6312 56.7937 53.334 53.5051 56.105 53.5051C58.876 53.5051 59.3937 56.7937 59.3937 56.7937H53.63H53.6312ZM68.2538 92.6893C68.2538 94.1149 67.0923 95.2717 65.6691 95.2717H63.9475C62.5255 95.2717 61.3735 94.1149 61.3735 92.6893V62.8121C61.3735 61.3865 62.5255 60.2345 63.9475 60.2345H65.6691C67.0923 60.2345 68.2538 61.3877 68.2538 62.8121V92.6893Z" fill="#D76B07"/>
<path d="M34.2261 33.002C35.193 33.1942 36.1658 33.2036 36.8839 33.1494L52.4794 51.1243C52.4546 51.142 52.4298 51.1621 52.4051 51.1786C52.5878 51.0583 53.7281 50.3308 54.7645 50.148L39.0453 32.0327C39.5877 31.3382 40.0594 30.2581 39.8896 28.717L39.0017 28.4234C39.0017 28.4234 39.0984 30.4904 36.5408 30.4904C33.9832 30.4904 33.5859 26.2526 39.0017 26.2526V22.1185H41.959L44.5166 10.3954H39.8896V0H36.9311V10.3954H34.9631V0H32.0093V10.3954H27.5746L30.1369 22.1185H33.8806V23.8919C33.8806 23.8919 30.6274 24.4826 30.6274 29.2087C30.6274 30.5329 31.158 31.4325 31.9339 32.0351L16.4033 49.9346C17.1886 49.9888 18.06 50.1834 18.9149 50.6444L34.2261 33.0008V33.002Z" fill="#4D4D4D"/>
</g>
<defs>
<clipPath id="clip0_1_725">
<rect width="71.7995" height="100" fill="white"/>
</clipPath>
</defs>
</svg>
