<svg width="107" height="100" viewBox="0 0 107 100" preserveAspectRatio="xMinYMin meet" fill="none" xmlns="http://www.w3.org/2000/svg">
<g clip-path="url(#clip0_1_748)">
<path d="M42.8671 23.5091C38.256 16.4882 43.6299 8.36829 51.5356 5.32732C53.5802 4.55755 55.6504 4.33805 57.7933 4.04539C58.2988 3.98441 59.399 3.97222 60.4553 3.96307C62.7102 3.93564 62.5241 0.888566 60.4508 0.566939C59.281 0.400791 57.9946 0.20873 57.3529 0.156903C45.6744 -0.89791 33.2392 3.32134 21.4547 15.1865C20.6103 16.0553 19.7401 16.9074 18.8987 17.7671C16.7966 26.3855 11.1594 28.8396 8.45656 29.5301C7.1914 28.4326 5.28004 28.4844 4.07843 29.6917C3.81662 29.9554 3.60929 30.2557 3.45796 30.5743L0.932176 33.0939C-0.308772 34.3469 -0.308772 36.3605 0.932176 37.5952L13.2282 49.9313C14.4509 51.1645 16.4698 51.1645 17.7122 49.9313L20.0882 47.5366C20.4484 47.3781 20.7889 47.1556 21.084 46.8583C22.1373 45.7989 22.3098 44.1893 21.6015 42.947C21.6061 42.9333 21.6091 42.9211 21.6121 42.9073C21.6727 42.7107 21.7377 42.4897 21.824 42.2549C21.9224 41.9638 22.0525 41.6788 22.1842 41.3891C22.2598 41.252 22.3158 41.1087 22.39 40.9623C22.5867 40.6224 22.8198 40.313 23.0528 40.0188C23.5416 39.4594 24.147 38.9594 24.9249 38.6546C26.24 38.1332 27.5535 37.9793 28.8142 38.0677C28.8959 38.057 28.9776 38.0494 29.0608 38.0494L42.8656 23.5122L42.8671 23.5091Z" fill="#4D4D4D"/>
<path d="M45.7031 27.1708C45.01 26.4787 44.4304 25.7684 43.9567 25.0459L30.1519 39.5831C30.0687 39.5831 29.9869 39.5892 29.9067 39.6014C33.4162 39.8499 36.5398 41.9946 38.3013 43.4533C38.5101 43.6332 87.349 92.961 87.349 92.961L99.7525 81.5333C99.7525 81.5333 46.4885 27.9466 45.7031 27.1708Z" fill="#D76B07"/>
<path d="M40.4308 95.6617C44.3307 91.7259 45.5853 86.1318 44.196 81.1336L53.2595 72.0168C53.3836 71.9086 53.5077 71.7958 53.6257 71.6784L66.1926 59.0054L78.8805 46.2409C79.0001 46.1205 79.1105 45.9955 79.2195 45.8705L88.2694 36.7445C93.2331 38.1423 98.7871 36.8787 102.695 32.9506C106.557 29.0392 107.825 23.5167 106.484 18.5444L98.1273 26.9677L89.9386 24.7544L87.7442 16.5004L96.1009 8.08471C91.1674 6.73723 85.6815 8.01154 81.8013 11.9153C77.7349 16.0111 76.5409 21.904 78.2086 27.0637L78.1662 27.1064L55.8095 49.6264L34.6271 70.9589L34.5847 71.0031C29.4635 69.3249 23.6129 70.526 19.545 74.6218C15.6693 78.5301 14.4042 84.0542 15.7435 89.0249L24.0972 80.6077L32.292 82.818L34.4909 91.0659L26.1296 99.4831C31.0662 100.834 36.5506 99.5563 40.4338 95.6663L40.4308 95.6617Z" fill="#4D4D4D"/>
</g>
<defs>
<clipPath id="clip0_1_748">
<rect width="107" height="100" fill="white"/>
</clipPath>
</defs>
</svg>
