<svg width="90" height="100" viewBox="0 0 90 100" fill="none" xmlns="http://www.w3.org/2000/svg">
<g clip-path="url(#clip0_1_733)">
<path d="M25.3761 11.0112H10.571C10.4386 11.8976 10.4565 12.8092 10.6534 13.7064C11.3944 17.0862 14.2714 19.7081 17.5697 20.012C21.0755 20.3338 24.3368 18.3917 25.6732 15.1861C26.2412 13.8253 26.4155 12.3876 26.2281 11.0124H25.3773L25.3761 11.0112Z" fill="#4D4D4D"/>
<path d="M37.5978 61.7643H36.5656V58.7412C36.3067 58.8493 36.0298 58.9346 35.7291 58.9886C35.1838 59.0871 34.6743 59.0763 34.2113 58.9742V61.7643H33.1791C31.3104 61.7643 29.7949 63.4902 29.7949 65.6197V83.507C29.7949 85.6365 31.3104 87.3624 33.1791 87.3624H37.5966C39.4665 87.3624 40.9808 85.6353 40.9808 83.507V65.6197C40.9808 63.4902 39.4653 61.7643 37.5966 61.7643H37.5978Z" fill="#D76B07"/>
<path d="M35.729 58.9887C36.0285 58.9347 36.3065 58.8494 36.5655 58.7413C37.9032 58.1816 38.6561 56.9313 38.495 55.3111C37.9569 49.8859 37.3769 44.4667 36.8137 39.044C36.544 36.4497 36.2863 33.8542 35.9999 31.2599C35.5297 26.989 33.0799 23.7605 29.043 22.3541C28.2304 21.9493 27.172 21.7992 26.4488 21.7884C24.5312 21.7584 22.6136 21.7439 20.696 21.7355V22.6483L19.4705 25.1561L19.2772 25.6726L20.4621 46.0413L18.3763 48.393L18.3464 48.3594L18.3166 48.393L16.2308 46.0413L17.4157 25.6726L17.2224 25.1561L15.9969 22.6483V21.7319C14.1807 21.7379 12.3645 21.7475 10.5495 21.7656C5.14874 21.8196 1.44121 24.8775 0.18946 30.1573C0.154855 30.3015 0.0641657 30.4312 -0.00146484 30.5681V57.6856C0.58921 58.6873 1.21091 59.6517 2.44715 59.9496C4.77763 60.5117 6.6487 59.1989 6.89809 56.7968C6.95418 56.2563 6.93031 55.7074 6.93031 55.1622C6.93151 48.6572 6.93151 42.1523 6.93151 35.6486V34.3238H8.50425V35.8672C8.50425 55.3027 8.50187 74.7394 8.51141 94.1749C8.51141 95.0264 8.53766 95.896 8.70234 96.7271C9.046 98.4639 10.3622 99.3274 11.8419 99.9976H14.164C16.8608 99.0548 17.7379 97.0802 17.7188 94.3058C17.6448 83.3221 17.6878 72.3385 17.6878 61.3548V59.9147H19.2724V61.3284C19.2724 72.2736 19.3249 83.2188 19.2354 94.1629C19.2128 96.9745 20.0361 98.9971 22.758 99.9976H25.0801C27.7781 99.0175 28.5645 96.9685 28.5586 94.2373C28.5132 74.8066 28.5347 55.3771 28.5347 35.9464V34.3502L28.5586 33.7869C29.2757 33.8182 29.3115 33.8146 29.3509 33.811C29.401 34.2902 29.4476 34.7418 29.4953 35.1946C30.1766 41.7391 30.8556 48.2837 31.543 54.8283C31.6002 55.3687 31.679 55.9104 31.8103 56.4365C32.1539 57.8225 33.0274 58.7089 34.2088 58.9707C34.6717 59.0728 35.1813 59.0836 35.7266 58.9851L35.729 58.9887Z" fill="#4D4D4D"/>
<path d="M26.3 8.12755H26.3704C25.9277 6.69469 24.2488 2.30483 20.0711 1.19265V8.93707H19.6343V1.09056C19.6343 1.09056 19.6284 1.08936 19.6248 1.08816C19.3539 0.444391 18.7859 0 18.1248 0C17.4638 0 16.9149 0.428777 16.6404 1.05453C16.6285 1.05693 16.6165 1.05933 16.6046 1.06173V8.93826H16.1679V1.15301C11.7181 2.24237 10.6382 7.10665 10.4592 8.12755H10.4866C9.84823 8.12755 9.33154 8.62839 9.33154 9.24814C9.33154 9.86788 9.84823 10.3687 10.4866 10.3687H26.2976C26.9348 10.3687 27.4527 9.86788 27.4527 9.24814C27.4527 8.62839 26.9348 8.12755 26.2976 8.12755H26.3Z" fill="#D76B07"/>
<path d="M73.9928 11.0112H59.1877C59.0553 11.8976 59.0732 12.8092 59.2701 13.7064C60.0111 17.0862 62.8881 19.7081 66.1863 20.012C69.6922 20.3338 72.9535 18.3917 74.2899 15.1861C74.8579 13.8253 75.0321 12.3876 74.8448 11.0124H73.994L73.9928 11.0112Z" fill="#4D4D4D"/>
<path d="M86.2145 61.7643H85.1823V58.7412C84.9234 58.8493 84.6465 58.9346 84.3458 58.9886C83.8005 59.0871 83.291 59.0763 82.828 58.9742V61.7643H81.7958C79.9259 61.7643 78.4116 63.4902 78.4116 65.6197V83.507C78.4116 85.6365 79.9271 87.3624 81.7958 87.3624H86.2133C88.082 87.3624 89.5974 85.6353 89.5974 83.507V65.6197C89.5974 63.4902 88.082 61.7643 86.2133 61.7643H86.2145Z" fill="#D76B07"/>
<path d="M84.3472 58.9887C84.6467 58.9347 84.9247 58.8494 85.1836 58.7413C86.5213 58.1816 87.2743 56.9313 87.1132 55.3111C86.575 49.8859 85.9951 44.4667 85.4318 39.044C85.1622 36.4497 84.9044 33.8542 84.618 31.2599C84.1479 26.989 81.6981 23.7605 77.6612 22.3541C76.8486 21.9493 75.7913 21.7992 75.067 21.7884C73.1494 21.7584 71.233 21.7439 69.3142 21.7355V22.6483L68.0887 25.1561L67.8954 25.6726L69.0803 46.0413L66.9944 48.393L66.9646 48.3594L66.9348 48.393L64.8489 46.0413L66.0338 25.6726L65.8405 25.1561L64.615 22.6483V21.7319C62.7989 21.7379 60.9827 21.7475 59.1677 21.7656C53.7669 21.8196 50.0594 24.8775 48.8076 30.1573C48.773 30.3015 48.6823 30.4312 48.6167 30.5681V57.6856C49.2074 58.6873 49.8291 59.6517 51.0653 59.9496C53.3958 60.5117 55.2669 59.1989 55.5163 56.7968C55.5723 56.2563 55.5485 55.7074 55.5485 55.1622C55.5497 48.6572 55.5497 42.1523 55.5497 35.6486V34.3238H57.1224V35.8672C57.1224 55.3027 57.12 74.7394 57.1296 94.1749C57.1296 95.0264 57.1558 95.896 57.3205 96.7271C57.6642 98.4639 58.9804 99.3274 60.46 99.9976H62.7822C65.479 99.0548 66.356 97.0802 66.3369 94.3058C66.263 83.3221 66.3059 72.3385 66.3059 61.3548V59.9147H67.8906V61.3284C67.8906 72.2736 67.9431 83.2188 67.8536 94.1629C67.8309 96.9745 68.6543 98.9971 71.3762 99.9976H73.6983C76.3963 99.0175 77.1827 96.9685 77.1767 94.2373C77.1314 74.8066 77.1529 55.3771 77.1529 35.9464V34.3502L77.1767 33.7869C77.8939 33.8182 77.9297 33.8146 77.9691 33.811C78.0192 34.2902 78.0657 34.7418 78.1134 35.1946C78.7948 41.7391 79.4738 48.2837 80.1611 54.8283C80.2184 55.3687 80.2972 55.9104 80.4284 56.4365C80.7721 57.8225 81.6456 58.7089 82.8269 58.9707C83.2899 59.0728 83.7994 59.0836 84.3448 58.9851L84.3472 58.9887Z" fill="#4D4D4D"/>
<path d="M74.9167 8.12755H74.9871C74.5444 6.69469 72.8655 2.30483 68.6878 1.19265V8.93707H68.251V1.09056C68.251 1.09056 68.2451 1.08936 68.2415 1.08816C67.9706 0.444391 67.4026 0 66.7415 0C66.0805 0 65.5316 0.428777 65.2571 1.05453C65.2452 1.05693 65.2332 1.05933 65.2213 1.06173V8.93826H64.7846V1.15301C60.3348 2.24237 59.2549 7.10665 59.0759 8.12755H59.1033C58.4649 8.12755 57.9482 8.62839 57.9482 9.24814C57.9482 9.86788 58.4649 10.3687 59.1033 10.3687H74.9143C75.5515 10.3687 76.0694 9.86788 76.0694 9.24814C76.0694 8.62839 75.5515 8.12755 74.9143 8.12755H74.9167Z" fill="#D76B07"/>
</g>
<defs>
<clipPath id="clip0_1_733">
<rect width="89.6" height="100" fill="white"/>
</clipPath>
</defs>
</svg>
