<svg width="40" height="53" viewBox="0 0 40 53" fill="none" xmlns="http://www.w3.org/2000/svg">
<path d="M20 52.5L2 39C1.375 38.5417 0.885417 37.9583 0.53125 37.25C0.177083 36.5417 0 35.7917 0 35V5C0 3.625 0.489583 2.44792 1.46875 1.46875C2.44792 0.489583 3.625 0 5 0H35C36.375 0 37.5521 0.489583 38.5312 1.46875C39.5104 2.44792 40 3.625 40 5V35C40 35.7917 39.8229 36.5417 39.4688 37.25C39.1146 37.9583 38.625 38.5417 38 39L20 52.5ZM20 46.25L35 35V5H5V35L20 46.25ZM17.375 32.5L31.5 18.375L28 14.75L17.375 25.375L12.125 20.125L8.5 23.625L17.375 32.5Z" fill="white"/>
</svg>
