<svg width="38" height="30" viewBox="0 0 38 30" xmlns="http://www.w3.org/2000/svg">
<path d="M4.33317 29.6668C3.32484 29.6668 2.46164 29.3078 1.74359 28.5897C1.02553 27.8717 0.666504 27.0085 0.666504 26.0002V4.00016C0.666504 2.99183 1.02553 2.12864 1.74359 1.41058C2.46164 0.692524 3.32484 0.333496 4.33317 0.333496H33.6665C34.6748 0.333496 35.538 0.692524 36.2561 1.41058C36.9741 2.12864 37.3332 2.99183 37.3332 4.00016V26.0002C37.3332 27.0085 36.9741 27.8717 36.2561 28.5897C35.538 29.3078 34.6748 29.6668 33.6665 29.6668H4.33317ZM18.9998 16.8335L4.33317 7.66683V26.0002H33.6665V7.66683L18.9998 16.8335ZM18.9998 13.1668L33.6665 4.00016H4.33317L18.9998 13.1668ZM4.33317 7.66683V4.00016V26.0002V7.66683Z"/>
</svg>
