<svg width="38" height="38" viewBox="0 0 38 38" xmlns="http://www.w3.org/2000/svg">
<path d="M32.1016 37.7512C28.2426 37.7512 24.4298 36.9099 20.6634 35.2274C16.897 33.5449 13.4702 31.16 10.383 28.0728C7.2958 24.9855 4.91092 21.5587 3.22839 17.7923C1.54586 14.0259 0.70459 10.2132 0.70459 6.3542C0.70459 5.7985 0.889823 5.33541 1.26029 4.96495C1.63075 4.59448 2.09384 4.40925 2.64954 4.40925H10.1515C10.5837 4.40925 10.9696 4.55589 11.3092 4.84918C11.6488 5.14246 11.8494 5.48978 11.9112 5.89111L13.1152 12.3743C13.1769 12.8682 13.1615 13.285 13.0689 13.6246C12.9763 13.9642 12.8065 14.2575 12.5595 14.5044L8.0676 19.0427C8.68504 20.1849 9.41826 21.2886 10.2672 22.3537C11.1162 23.4188 12.0501 24.4453 13.0689 25.4332C14.0259 26.3902 15.0293 27.2778 16.0789 28.0959C17.1286 28.914 18.24 29.6627 19.4131 30.3419L23.7661 25.9889C24.0439 25.711 24.4067 25.5027 24.8543 25.3637C25.302 25.2248 25.7419 25.1862 26.1741 25.248L32.5647 26.5446C32.9969 26.6681 33.3519 26.8919 33.6298 27.2161C33.9076 27.5402 34.0465 27.903 34.0465 28.3043V35.8062C34.0465 36.3619 33.8613 36.825 33.4908 37.1955C33.1204 37.566 32.6573 37.7512 32.1016 37.7512ZM6.30789 15.5232L9.36423 12.4669L8.57699 8.11391H4.45556C4.60992 9.37967 4.82602 10.63 5.10387 11.8649C5.38172 13.0998 5.78306 14.3192 6.30789 15.5232ZM22.8862 32.1016C24.0903 32.6264 25.3174 33.0432 26.5677 33.3519C27.8181 33.6606 29.0761 33.8613 30.3419 33.9539V29.8788L25.9889 28.9989L22.8862 32.1016ZM28.4895 19.2279C25.9271 19.2279 23.7429 18.3249 21.9369 16.5189C20.1309 14.7128 19.2279 12.5286 19.2279 9.96624C19.2279 7.40385 20.1309 5.21964 21.9369 3.41362C23.7429 1.6076 25.9271 0.70459 28.4895 0.70459C31.0519 0.70459 33.2361 1.6076 35.0422 3.41362C36.8482 5.21964 37.7512 7.40385 37.7512 9.96624C37.7512 12.5286 36.8482 14.7128 35.0422 16.5189C33.2361 18.3249 31.0519 19.2279 28.4895 19.2279ZM27.5634 15.5232H29.4157V8.11391H27.5634V15.5232ZM28.4895 6.26158C28.7365 6.26158 28.9526 6.16896 29.1379 5.98373C29.3231 5.7985 29.4157 5.58239 29.4157 5.33541C29.4157 5.08844 29.3231 4.87233 29.1379 4.6871C28.9526 4.50187 28.7365 4.40925 28.4895 4.40925C28.2426 4.40925 28.0265 4.50187 27.8412 4.6871C27.656 4.87233 27.5634 5.08844 27.5634 5.33541C27.5634 5.58239 27.656 5.7985 27.8412 5.98373C28.0265 6.16896 28.2426 6.26158 28.4895 6.26158Z"/>
</svg>
