<svg width="42" height="42" viewBox="0 0 42 42" xmlns="http://www.w3.org/2000/svg">
<path d="M20.8959 33.5001C21.6251 33.5001 22.2414 33.2483 22.7449 32.7449C23.2483 32.2414 23.5001 31.6251 23.5001 30.8959C23.5001 30.1667 23.2483 29.5504 22.7449 29.047C22.2414 28.5435 21.6251 28.2917 20.8959 28.2917C20.1667 28.2917 19.5504 28.5435 19.047 29.047C18.5435 29.5504 18.2917 30.1667 18.2917 30.8959C18.2917 31.6251 18.5435 32.2414 19.047 32.7449C19.5504 33.2483 20.1667 33.5001 20.8959 33.5001ZM19.0209 25.4793H22.8751C22.8751 24.3334 23.0053 23.4306 23.2657 22.7709C23.5261 22.1112 24.264 21.2084 25.4793 20.0626C26.382 19.1598 27.0938 18.3004 27.6147 17.4845C28.1355 16.6685 28.3959 15.6876 28.3959 14.5417C28.3959 12.5973 27.6841 11.1042 26.2605 10.0626C24.8369 9.02092 23.1529 8.50008 21.2084 8.50008C19.2292 8.50008 17.6233 9.02092 16.3907 10.0626C15.1581 11.1042 14.2987 12.3542 13.8126 13.8126L17.2501 15.1667C17.4237 14.5417 17.8143 13.8647 18.422 13.1355C19.0296 12.4063 19.9584 12.0417 21.2084 12.0417C22.3195 12.0417 23.1529 12.3456 23.7084 12.9532C24.264 13.5608 24.5417 14.2292 24.5417 14.9584C24.5417 15.6529 24.3334 16.3039 23.9168 16.9115C23.5001 17.5192 22.9793 18.0834 22.3543 18.6042C20.8265 19.9584 19.889 20.9827 19.5417 21.6772C19.1945 22.3716 19.0209 23.639 19.0209 25.4793ZM21.0001 41.8334C18.1181 41.8334 15.4098 41.2865 12.8751 40.1928C10.3404 39.099 8.1355 37.6147 6.2605 35.7397C4.3855 33.8647 2.90112 31.6598 1.80737 29.1251C0.713623 26.5904 0.166748 23.882 0.166748 21.0001C0.166748 18.1181 0.713623 15.4098 1.80737 12.8751C2.90112 10.3404 4.3855 8.1355 6.2605 6.2605C8.1355 4.3855 10.3404 2.90112 12.8751 1.80737C15.4098 0.713623 18.1181 0.166748 21.0001 0.166748C23.882 0.166748 26.5904 0.713623 29.1251 1.80737C31.6598 2.90112 33.8647 4.3855 35.7397 6.2605C37.6147 8.1355 39.099 10.3404 40.1928 12.8751C41.2865 15.4098 41.8334 18.1181 41.8334 21.0001C41.8334 23.882 41.2865 26.5904 40.1928 29.1251C39.099 31.6598 37.6147 33.8647 35.7397 35.7397C33.8647 37.6147 31.6598 39.099 29.1251 40.1928C26.5904 41.2865 23.882 41.8334 21.0001 41.8334ZM21.0001 37.6668C25.6529 37.6668 29.5938 36.0522 32.823 32.823C36.0522 29.5938 37.6668 25.6529 37.6668 21.0001C37.6668 16.3473 36.0522 12.4063 32.823 9.17717C29.5938 5.948 25.6529 4.33342 21.0001 4.33342C16.3473 4.33342 12.4063 5.948 9.17717 9.17717C5.948 12.4063 4.33342 16.3473 4.33342 21.0001C4.33342 25.6529 5.948 29.5938 9.17717 32.823C12.4063 36.0522 16.3473 37.6668 21.0001 37.6668Z"/>
</svg>
