<svg width="51" height="64" viewBox="0 0 51 64" fill="none" xmlns="http://www.w3.org/2000/svg">
<path fill-rule="evenodd" clip-rule="evenodd" d="M7.69996 58.2099C7.69996 60.9599 15.79 63.1699 25.77 63.1699C35.75 63.1699 43.84 60.9599 43.84 58.2099C43.84 47.2299 44.04 42.84 45.76 31.1599C45.85 31.1199 45.94 31.0699 46.05 31.0299C60.88 24.2699 35.64 -0.770051 26.4 0.149949C16.6 -0.640051 -9.77004 23.9699 5.16996 30.9599C5.32996 31.0299 5.48996 31.0899 5.63996 31.1599C7.28996 42.4699 7.68996 47.3599 7.68996 58.2099H7.69996ZM45.29 21.83L45.16 21.7599C39.08 19.3699 16.7 17.2499 6.41996 21.1099C19.67 -2.01005 32.7 -0.44005 45.29 21.83ZM42.68 28.5699C40 29.9499 33.42 30.9099 25.69 30.9099C17.96 30.9099 11.4 29.9399 8.71996 28.5699C7.88996 28.1399 7.42996 27.6699 7.42996 27.1699C7.42996 25.1199 15.61 23.4299 25.68 23.4299C35.75 23.4299 43.96 25.1199 43.96 27.1699C43.96 27.6699 43.49 28.1399 42.68 28.5699Z" fill="#D76B07"/>
</svg>
