<svg width="58" height="64" viewBox="0 0 58 64" fill="none" xmlns="http://www.w3.org/2000/svg">
<path fill-rule="evenodd" clip-rule="evenodd" d="M44.62 28.2099C44.78 28.4099 44.91 28.6199 45.05 28.8399C45.14 29.0199 45.23 29.18 45.3 29.3099C45.44 29.6299 45.57 29.9399 45.66 30.2599C53.95 18.3599 57.38 19.1299 41.58 7.76995C30.74 0.19995 20.46 -1.33005 11.52 1.09995C6.56 2.46995 6.11 4.49995 11.72 4.15995C37.61 3.07995 21.03 24.3799 21.16 24.5299C21.16 24.5499 21.68 24.8899 22.47 25.4499L0.25 57.47L8.5 63.26L30.74 31.24C31.48 31.76 31.93 32.0999 31.93 32.0999C31.61 32.5499 32.65 31.1299 32.99 30.6999C34.59 28.8299 37.97 25.6299 42.12 26.4599C42.77 26.5999 43.31 26.8899 43.77 27.2699C44 27.4699 44.22 27.68 44.4 27.9C44.49 27.99 44.56 28.0999 44.63 28.1899L44.62 28.2099ZM47.48 32.5099C48.38 33.16 49.64 32.9399 50.3 32.0099L56.68 22.8599C57.31 21.9399 57.09 20.6699 56.18 20.0199L54.2 18.6699L45.57 31.1799L47.49 32.5099H47.48Z" fill="#D76B07"/>
</svg>
