<svg width="46" height="46" viewBox="0 0 46 46" xmlns="http://www.w3.org/2000/svg">
<path d="M24.4635 22.9167L17.4167 29.9635L20.625 33.2292L30.9375 22.9167L20.625 12.6042L17.4167 15.8698L24.4635 22.9167ZM22.9167 45.8333C19.7465 45.8333 16.7674 45.2318 13.9792 44.0286C11.191 42.8255 8.76563 41.1927 6.70312 39.1302C4.64062 37.0677 3.00781 34.6424 1.80469 31.8542C0.601562 29.066 0 26.0868 0 22.9167C0 19.7465 0.601562 16.7674 1.80469 13.9792C3.00781 11.191 4.64062 8.76563 6.70312 6.70312C8.76563 4.64062 11.191 3.00781 13.9792 1.80469C16.7674 0.601562 19.7465 0 22.9167 0C26.0868 0 29.066 0.601562 31.8542 1.80469C34.6424 3.00781 37.0677 4.64062 39.1302 6.70312C41.1927 8.76563 42.8255 11.191 44.0286 13.9792C45.2318 16.7674 45.8333 19.7465 45.8333 22.9167C45.8333 26.0868 45.2318 29.066 44.0286 31.8542C42.8255 34.6424 41.1927 37.0677 39.1302 39.1302C37.0677 41.1927 34.6424 42.8255 31.8542 44.0286C29.066 45.2318 26.0868 45.8333 22.9167 45.8333ZM22.9167 41.25C28.0347 41.25 32.3698 39.474 35.9219 35.9219C39.474 32.3698 41.25 28.0347 41.25 22.9167C41.25 17.7986 39.474 13.4635 35.9219 9.91146C32.3698 6.35938 28.0347 4.58333 22.9167 4.58333C17.7986 4.58333 13.4635 6.35938 9.91146 9.91146C6.35938 13.4635 4.58333 17.7986 4.58333 22.9167C4.58333 28.0347 6.35938 32.3698 9.91146 35.9219C13.4635 39.474 17.7986 41.25 22.9167 41.25Z"/>
</svg>
