<svg width="46" height="46" viewBox="0 0 46 46" xmlns="http://www.w3.org/2000/svg">
<path d="M21.37 22.9167L28.4168 29.9635L25.2085 33.2292L14.896 22.9167L25.2085 12.6042L28.4168 15.8698L21.37 22.9167ZM22.9168 45.8333C26.087 45.8333 29.0661 45.2318 31.8543 44.0286C34.6425 42.8255 37.0679 41.1927 39.1304 39.1302C41.1929 37.0677 42.8257 34.6424 44.0288 31.8542C45.2319 29.066 45.8335 26.0868 45.8335 22.9167C45.8335 19.7465 45.2319 16.7674 44.0288 13.9792C42.8257 11.191 41.1929 8.76563 39.1304 6.70312C37.0679 4.64062 34.6425 3.00781 31.8543 1.80469C29.0661 0.601562 26.087 0 22.9168 0C19.7467 0 16.7675 0.601562 13.9793 1.80469C11.1911 3.00781 8.76579 4.64062 6.70329 6.70312C4.64078 8.76563 3.00797 11.191 1.80485 13.9792C0.601723 16.7674 0.000160217 19.7465 0.000160217 22.9167C0.000160217 26.0868 0.601723 29.066 1.80485 31.8542C3.00797 34.6424 4.64078 37.0677 6.70329 39.1302C8.76579 41.1927 11.1911 42.8255 13.9793 44.0286C16.7675 45.2318 19.7467 45.8333 22.9168 45.8333ZM22.9168 41.25C17.7988 41.25 13.4637 39.474 9.91162 35.9219C6.35954 32.3698 4.5835 28.0347 4.5835 22.9167C4.5835 17.7986 6.35954 13.4635 9.91162 9.91146C13.4637 6.35938 17.7988 4.58333 22.9168 4.58333C28.0349 4.58333 32.37 6.35938 35.922 9.91146C39.4741 13.4635 41.2502 17.7986 41.2502 22.9167C41.2502 28.0347 39.4741 32.3698 35.922 35.9219C32.37 39.474 28.0349 41.25 22.9168 41.25Z"/>
</svg>
