<svg width="30" height="30" viewBox="0 0 30 30" fill="none" xmlns="http://www.w3.org/2000/svg">
<path d="M15 30C23.2843 30 30 23.2843 30 15C30 6.71573 23.2843 0 15 0C6.71573 0 0 6.71573 0 15C0 23.2843 6.71573 30 15 30Z" fill="#13ADDD"/>
<path d="M22.3021 8.90644C22.2443 8.73977 22.1755 8.69312 22.0688 8.65312C21.8355 8.56423 21.4399 8.69755 21.4399 8.69755C21.4399 8.69755 7.41991 13.7376 6.61991 14.2953C6.44657 14.4153 6.38879 14.4842 6.36213 14.5664C6.22435 14.9642 6.65546 15.1398 6.65546 15.1398L10.2688 16.3176C10.2688 16.3176 10.4043 16.3376 10.451 16.3064C11.2732 15.7864 18.7221 11.0842 19.151 10.9264C19.2199 10.9064 19.2688 10.9287 19.2555 10.9753C19.0843 11.5798 12.6155 17.3287 12.6155 17.3287C12.6155 17.3287 12.591 17.3598 12.5755 17.3953L12.5666 17.3909L12.2288 20.9753C12.2288 20.9753 12.0866 22.0731 13.1866 20.9753C13.9621 20.1998 14.711 19.5531 15.0866 19.2376C16.3288 20.0953 17.6666 21.0442 18.2421 21.5398C18.531 21.7887 18.7755 21.8287 18.9732 21.822C19.5199 21.802 19.6732 21.1998 19.6732 21.1998C19.6732 21.1998 22.2288 10.9176 22.3132 9.53978C22.3221 9.40422 22.3332 9.31977 22.3332 9.22644C22.3332 9.09755 22.3221 8.96866 22.3021 8.90644Z" fill="white"/>
</svg>
