<svg width="30" height="30" viewBox="0 0 30 30" fill="none" xmlns="http://www.w3.org/2000/svg">
<path d="M14.8918 29.0615C12.9501 29.0615 11.12 28.6876 9.40129 27.9398C7.68262 27.192 6.18042 26.1752 4.8947 24.8895C3.60897 23.6038 2.5922 22.1016 1.84438 20.3829C1.09657 18.6642 0.722656 16.834 0.722656 14.8923C0.722656 13.7378 0.853852 12.6161 1.11624 11.5272C1.37864 10.4382 1.75911 9.4149 2.25765 8.45716C2.7562 7.49943 3.35314 6.6073 4.04848 5.78076C4.74382 4.95422 5.52444 4.21296 6.39033 3.55698L17.0959 14.2626L14.8918 16.4667L6.39033 7.96518C5.60316 8.90979 4.98653 9.96592 4.54047 11.1336C4.0944 12.3012 3.87137 13.5541 3.87137 14.8923C3.87137 17.9361 4.94718 20.5338 7.09879 22.6854C9.25041 24.837 11.8481 25.9128 14.8918 25.9128C17.9356 25.9128 20.5333 24.837 22.6849 22.6854C24.8365 20.5338 25.9123 17.9361 25.9123 14.8923C25.9123 12.0847 25.0136 9.66417 23.2163 7.63063C21.4189 5.59708 19.1688 4.39664 16.4662 4.02929V7.02056H13.3175V0.723145H14.8918C16.8336 0.723145 18.6637 1.09705 20.3824 1.84487C22.1011 2.59269 23.6033 3.60946 24.889 4.89518C26.1747 6.18091 27.1915 7.6831 27.9393 9.40178C28.6871 11.1204 29.061 12.9506 29.061 14.8923C29.061 16.834 28.6871 18.6642 27.9393 20.3829C27.1915 22.1016 26.1747 23.6038 24.889 24.8895C23.6033 26.1752 22.1011 27.192 20.3824 27.9398C18.6637 28.6876 16.8336 29.0615 14.8918 29.0615ZM14.8918 24.3385C14.4458 24.3385 14.0719 24.1876 13.7701 23.8858C13.4684 23.5841 13.3175 23.2102 13.3175 22.7641C13.3175 22.318 13.4684 21.9441 13.7701 21.6424C14.0719 21.3406 14.4458 21.1898 14.8918 21.1898C15.3379 21.1898 15.7118 21.3406 16.0136 21.6424C16.3153 21.9441 16.4662 22.318 16.4662 22.7641C16.4662 23.2102 16.3153 23.5841 16.0136 23.8858C15.7118 24.1876 15.3379 24.3385 14.8918 24.3385ZM22.7636 16.4667C22.3176 16.4667 21.9436 16.3158 21.6419 16.0141C21.3401 15.7123 21.1893 15.3384 21.1893 14.8923C21.1893 14.4463 21.3401 14.0724 21.6419 13.7706C21.9436 13.4689 22.3176 13.318 22.7636 13.318C23.2097 13.318 23.5836 13.4689 23.8854 13.7706C24.1871 14.0724 24.338 14.4463 24.338 14.8923C24.338 15.3384 24.1871 15.7123 23.8854 16.0141C23.5836 16.3158 23.2097 16.4667 22.7636 16.4667ZM7.02008 16.4667C6.57401 16.4667 6.2001 16.3158 5.89835 16.0141C5.5966 15.7123 5.44572 15.3384 5.44572 14.8923C5.44572 14.4463 5.5966 14.0724 5.89835 13.7706C6.2001 13.4689 6.57401 13.318 7.02008 13.318C7.46614 13.318 7.84005 13.4689 8.1418 13.7706C8.44355 14.0724 8.59443 14.4463 8.59443 14.8923C8.59443 15.3384 8.44355 15.7123 8.1418 16.0141C7.84005 16.3158 7.46614 16.4667 7.02008 16.4667Z" fill="#D76B07"/>
</svg>
