<svg width="30" height="30" viewBox="0 0 30 30" fill="none" xmlns="http://www.w3.org/2000/svg">
<path d="M15 30C23.2843 30 30 23.2843 30 15C30 6.71573 23.2843 0 15 0C6.71574 0 0 6.71573 0 15C0 23.2843 6.71574 30 15 30Z" fill="#0DB13B"/>
<path fill-rule="evenodd" clip-rule="evenodd" d="M22.2156 7.96906C20.42 6.17129 18.0289 5.18018 15.4844 5.18018C10.24 5.18018 5.97111 9.44684 5.96889 14.6913C5.96889 16.3668 6.40667 18.0046 7.24 19.4468L5.89111 24.3757L10.9356 23.0535C12.3244 23.8113 13.8911 24.2113 15.4822 24.2113H15.4867C20.7311 24.2113 25 19.9446 25.0022 14.698C25.0022 12.1557 24.0133 9.76684 22.2178 7.96906H22.2156ZM15.4844 22.6046H15.4822C14.0622 22.6046 12.6711 22.2224 11.4578 21.5024L11.1689 21.3313L8.17556 22.1157L8.97556 19.198L8.78667 18.898C7.99556 17.6402 7.57778 16.1846 7.57778 14.6913C7.57778 10.3313 11.1267 6.78462 15.4911 6.78462C17.6044 6.78462 19.5889 7.60906 21.0822 9.1024C22.5756 10.598 23.3978 12.5824 23.3956 14.6957C23.3956 19.0557 19.8467 22.6024 15.4867 22.6024L15.4844 22.6046ZM19.8222 16.6824C19.5845 16.5624 18.4156 15.9891 18.1978 15.9091C17.98 15.8291 17.8222 15.7891 17.6622 16.0291C17.5044 16.2668 17.0489 16.8024 16.9089 16.9602C16.7711 17.118 16.6311 17.138 16.3933 17.0202C16.1556 16.9002 15.3889 16.6513 14.4822 15.8402C13.7756 15.2091 13.2978 14.4313 13.16 14.1935C13.0222 13.9557 13.1444 13.8268 13.2644 13.7091C13.3711 13.6024 13.5022 13.4313 13.62 13.2935C13.7378 13.1557 13.7778 13.0557 13.8578 12.898C13.9378 12.7402 13.8978 12.6002 13.8378 12.4824C13.7778 12.3624 13.3022 11.1935 13.1044 10.718C12.9111 10.2535 12.7156 10.318 12.5689 10.3091C12.4311 10.3024 12.2711 10.3002 12.1133 10.3002C11.9556 10.3002 11.6978 10.3602 11.48 10.598C11.2622 10.8357 10.6489 11.4113 10.6489 12.5802C10.6489 13.7491 11.5 14.8802 11.62 15.038C11.7378 15.1957 13.2956 17.598 15.6822 18.6268C16.2489 18.8713 16.6933 19.018 17.0378 19.1268C17.6067 19.3068 18.1267 19.2824 18.5356 19.2202C18.9933 19.1513 19.9422 18.6446 20.14 18.0891C20.3378 17.5335 20.3378 17.058 20.2778 16.958C20.2178 16.858 20.06 16.8002 19.8222 16.6802V16.6824Z" fill="white"/>
</svg>
