<svg width="512" height="512" viewBox="0 0 512 512" fill="none" xmlns="http://www.w3.org/2000/svg">
<path d="M408 8H232C219.27 8 207.061 13.0571 198.059 22.0589C189.057 31.0606 184 43.2696 184 56H456C456 43.2696 450.943 31.0606 441.941 22.0589C432.939 13.0571 420.73 8 408 8Z" fill="#CBCBCB"/>
<path d="M456 56H152C135.026 56 118.747 62.7428 106.745 74.7452C94.7428 86.7475 88 103.026 88 120V200H136C136 187.27 141.057 175.061 150.059 166.059C159.061 157.057 171.27 152 184 152H232C232.019 139.275 237.082 127.078 246.08 118.08C255.078 109.082 267.275 104.019 280 104H376C388.73 104 400.939 109.057 409.941 118.059C418.943 127.061 424 139.27 424 152H456C468.73 152 480.939 146.943 489.941 137.941C498.943 128.939 504 116.73 504 104C504 91.2696 498.943 79.0606 489.941 70.0589C480.939 61.0571 468.73 56 456 56Z" fill="#B2B2B2"/>
<path d="M376 104C388.73 104 400.939 109.057 409.941 118.059C418.943 127.061 424 139.27 424 152C423.981 164.725 418.918 176.922 409.92 185.92C400.922 194.918 388.725 199.981 376 200H280C246.56 200 232 178.48 232 152C232.019 139.275 237.082 127.078 246.08 118.08C255.078 109.082 267.275 104.019 280 104H376Z" fill="#989898"/>
<path d="M184 200V264H24V200H136H184Z" fill="#B28364"/>
<path d="M184 264L189.36 344H18.6396L23.9996 264H184Z" fill="#D84C4C"/>
<path d="M189.36 344L194.64 424H13.3599L18.6399 344H189.36Z" fill="#E5E5E5"/>
<path d="M194.64 424L200 512H8L13.36 424H194.64Z" fill="#D84C4C"/>
<path d="M415.552 191.6C424.15 183.089 429.708 171.984 431.368 160H456C470.212 160.015 483.898 154.626 494.284 144.925C504.671 135.224 510.98 121.936 511.933 107.756C512.886 93.5761 508.412 79.5639 499.418 68.5599C490.424 57.5559 477.582 50.3833 463.496 48.496C461.664 35.0727 455.034 22.7664 444.833 13.8517C434.631 4.93701 421.548 0.0166271 408 0L232 0C218.538 0.0167509 205.531 4.87488 195.354 13.6873C185.177 22.4998 178.509 34.6786 176.568 48H152C132.911 48.0212 114.61 55.6137 101.112 69.1117C87.6135 82.6097 80.021 100.911 79.9998 120V160C79.9998 162.122 80.8427 164.157 82.343 165.657C83.8432 167.157 85.8781 168 87.9998 168C90.1215 168 92.1564 167.157 93.6567 165.657C95.157 164.157 95.9998 162.122 95.9998 160V120C96.0167 105.153 101.922 90.9191 112.421 80.4207C122.919 69.9224 137.153 64.0169 152 64H344C346.122 64 348.156 63.1571 349.657 61.6569C351.157 60.1566 352 58.1217 352 56C352 53.8783 351.157 51.8434 349.657 50.3431C348.156 48.8429 346.122 48 344 48H192.8C194.657 38.9713 199.569 30.8588 206.71 25.0297C213.85 19.2007 222.782 16.0116 232 16H408C417.217 16.0116 426.149 19.2007 433.29 25.0297C440.43 30.8588 445.343 38.9713 447.2 48H392C389.878 48 387.843 48.8429 386.343 50.3431C384.843 51.8434 384 53.8783 384 56C384 58.1217 384.843 60.1566 386.343 61.6569C387.843 63.1571 389.878 64 392 64H456C466.608 64 476.783 68.2143 484.284 75.7157C491.786 83.2172 496 93.3913 496 104C496 114.609 491.786 124.783 484.284 132.284C476.783 139.786 466.608 144 456 144H431.36C429.428 130.687 422.773 118.513 412.609 109.701C402.446 100.889 389.452 96.0257 376 96H336C333.878 96 331.843 96.8429 330.343 98.3431C328.843 99.8434 328 101.878 328 104C328 106.122 328.843 108.157 330.343 109.657C331.843 111.157 333.878 112 336 112H376C386.605 112.013 396.771 116.231 404.27 123.73C411.769 131.228 415.987 141.395 416 152C415.981 162.603 411.76 172.766 404.263 180.263C396.766 187.761 386.603 191.981 376 192H280C245.192 192 240 166.936 240 152C239.974 146.75 240.997 141.548 243.008 136.699C245.019 131.85 247.978 127.451 251.712 123.76C252.478 123.025 253.091 122.145 253.514 121.171C253.937 120.197 254.161 119.148 254.175 118.086C254.188 117.025 253.99 115.971 253.592 114.986C253.194 114.002 252.604 113.106 251.856 112.352C251.109 111.598 250.218 111.001 249.237 110.594C248.256 110.188 247.204 109.981 246.142 109.985C245.08 109.99 244.03 110.205 243.052 110.62C242.074 111.035 241.189 111.64 240.448 112.4C231.85 120.912 226.29 132.016 224.624 144H184C170.538 144.017 157.531 148.875 147.354 157.687C137.177 166.5 130.509 178.679 128.568 192H23.9998C21.8781 192 19.8432 192.843 18.343 194.343C16.8427 195.843 15.9998 197.878 15.9998 200V263.472L10.6718 343.832V344.088L5.39181 423.512L0.519806 503.512C0.386166 505.629 1.09915 507.713 2.50192 509.305C3.90468 510.897 5.88233 511.866 7.99981 512H8.49581C10.5356 512.004 12.4999 511.228 13.9869 509.832C15.4739 508.436 16.3714 506.524 16.4958 504.488L20.8878 432H47.9998C50.1215 432 52.1564 431.157 53.6567 429.657C55.1569 428.157 55.9998 426.122 55.9998 424C55.9998 421.878 55.1569 419.843 53.6567 418.343C52.1564 416.843 50.1215 416 47.9998 416H21.9118L26.1598 352H112C114.122 352 116.156 351.157 117.657 349.657C119.157 348.157 120 346.122 120 344C120 341.878 119.157 339.843 117.657 338.343C116.156 336.843 114.122 336 112 336H27.1998L31.4558 272H176.496L180.752 336H152C149.878 336 147.843 336.843 146.343 338.343C144.843 339.843 144 341.878 144 344C144 346.122 144.843 348.157 146.343 349.657C147.843 351.157 149.878 352 152 352H181.832L186.088 416H87.9998C85.8781 416 83.8432 416.843 82.343 418.343C80.8427 419.843 79.9998 421.878 79.9998 424C79.9998 426.122 80.8427 428.157 82.343 429.657C83.8432 431.157 85.8781 432 87.9998 432H187.112L191.528 504.488C191.652 506.524 192.55 508.436 194.037 509.832C195.524 511.228 197.488 512.004 199.528 512H200C201.049 511.937 202.075 511.667 203.02 511.207C203.965 510.747 204.81 510.106 205.507 509.319C206.204 508.532 206.739 507.616 207.082 506.622C207.424 505.628 207.568 504.577 207.504 503.528L202.632 423.528L197.344 344.16V344.048C197.332 343.975 197.316 343.903 197.296 343.832L192 264V200C192 197.878 191.157 195.843 189.657 194.343C188.156 192.843 186.122 192 184 192H144.8C146.657 182.971 151.569 174.859 158.71 169.03C165.85 163.201 174.782 160.012 184 160H224.456C227.568 189.8 248.216 208 280 208H376C383.352 208.034 390.637 206.601 397.428 203.785C404.22 200.969 410.381 196.826 415.552 191.6ZM176 256H31.9998V208H176V256Z" fill="#252525"/>
<path d="M452 232H380C368.33 232 357.139 236.636 348.887 244.887C340.636 253.139 336 264.33 336 276C336 287.67 340.636 298.861 348.887 307.113C357.139 315.364 368.33 320 380 320H408C410.122 320 412.157 319.157 413.657 317.657C415.157 316.157 416 314.122 416 312C416 309.878 415.157 307.843 413.657 306.343C412.157 304.843 410.122 304 408 304H380C372.574 304 365.452 301.05 360.201 295.799C354.95 290.548 352 283.426 352 276C352 268.574 354.95 261.452 360.201 256.201C365.452 250.95 372.574 248 380 248H452C459.426 248 466.548 250.95 471.799 256.201C477.05 261.452 480 268.574 480 276C479.987 283.422 477.033 290.537 471.785 295.785C466.537 301.033 459.422 303.987 452 304C449.878 304 447.843 304.843 446.343 306.343C444.843 307.843 444 309.878 444 312C444 314.122 444.843 316.157 446.343 317.657C447.843 319.157 449.878 320 452 320C463.666 319.989 474.852 315.35 483.101 307.101C491.35 298.852 495.989 287.666 496 276C495.987 264.334 491.348 253.15 483.099 244.901C474.85 236.652 463.666 232.013 452 232ZM136 120C136 115.757 137.686 111.687 140.686 108.686C143.687 105.686 147.757 104 152 104H184C186.122 104 188.157 103.157 189.657 101.657C191.157 100.157 192 98.1217 192 96C192 93.8783 191.157 91.8434 189.657 90.3431C188.157 88.8429 186.122 88 184 88H152C143.513 88 135.374 91.3714 129.373 97.3726C123.371 103.374 120 111.513 120 120C120 122.122 120.843 124.157 122.343 125.657C123.843 127.157 125.878 128 128 128C130.122 128 132.157 127.157 133.657 125.657C135.157 124.157 136 122.122 136 120Z" fill="#252525"/>
<path d="M296 112C300.418 112 304 108.418 304 104C304 99.5817 300.418 96 296 96C291.582 96 288 99.5817 288 104C288 108.418 291.582 112 296 112Z" fill="#252525"/>
</svg>
