<svg width="101" height="96" viewBox="0 0 101 96" fill="none" xmlns="http://www.w3.org/2000/svg">
<path d="M70.5 45.6562C71.9078 45.6562 73.0879 45.1801 74.0402 44.2277C74.9926 43.2754 75.4688 42.0953 75.4688 40.6875C75.4688 39.2797 74.9926 38.0996 74.0402 37.1473C73.0879 36.1949 71.9078 35.7188 70.5 35.7188C69.0922 35.7188 67.9121 36.1949 66.9598 37.1473C66.0074 38.0996 65.5312 39.2797 65.5312 40.6875C65.5312 42.0953 66.0074 43.2754 66.9598 44.2277C67.9121 45.1801 69.0922 45.6562 70.5 45.6562ZM30.75 35.7188H55.5938V25.7812H30.75V35.7188ZM13.3594 95.3438C10.5438 85.9031 7.76953 76.4832 5.03672 67.084C2.30391 57.6848 0.9375 48.0578 0.9375 38.2031C0.9375 30.5844 3.5875 24.125 8.8875 18.825C14.1875 13.525 20.6469 10.875 28.2656 10.875H53.1094C55.5109 7.72812 58.4301 5.28516 61.8668 3.54609C65.3035 1.80703 69.0094 0.9375 72.9844 0.9375C75.0547 0.9375 76.8145 1.66211 78.2637 3.11133C79.7129 4.56055 80.4375 6.32031 80.4375 8.39062C80.4375 8.8875 80.3754 9.38438 80.2512 9.88125C80.127 10.3781 79.982 10.8336 79.8164 11.2477C79.4852 12.1586 79.1746 13.0902 78.8848 14.0426C78.5949 14.9949 78.3672 15.968 78.2016 16.9617L89.5055 28.2656H100.312V62.9227L86.2758 67.5188L77.9531 95.3438H50.625V85.4062H40.6875V95.3438H13.3594ZM20.8125 85.4062H30.75V75.4688H60.5625V85.4062H70.5L78.2016 59.8172L90.375 55.718V38.2031H85.4062L68.0156 20.8125C68.0156 19.1562 68.1191 17.5621 68.3262 16.0301C68.5332 14.498 68.8437 12.9453 69.2578 11.3719C66.8562 12.0344 64.7445 13.173 62.9227 14.7879C61.1008 16.4027 59.7758 18.4109 58.9477 20.8125H28.2656C23.4625 20.8125 19.3633 22.5102 15.968 25.9055C12.5727 29.3008 10.875 33.4 10.875 38.2031C10.875 46.3188 11.993 54.248 14.2289 61.991C16.4648 69.734 18.6594 77.5391 20.8125 85.4062Z" fill="white"/>
</svg>
