<svg width="100" height="80" viewBox="0 0 100 80" fill="none" xmlns="http://www.w3.org/2000/svg">
<path d="M29.75 64.4583H39.6667V59.5H44.625C46.0299 59.5 47.2075 59.0248 48.1578 58.0745C49.1082 57.1241 49.5833 55.9465 49.5833 54.5417V39.6667C49.5833 38.2618 49.1082 37.0842 48.1578 36.1339C47.2075 35.1835 46.0299 34.7083 44.625 34.7083H29.75V29.75H49.5833V19.8333H39.6667V14.875H29.75V19.8333H24.7917C23.3868 19.8333 22.2092 20.3085 21.2589 21.2589C20.3085 22.2092 19.8333 23.3868 19.8333 24.7917V39.6667C19.8333 41.0715 20.3085 42.2491 21.2589 43.1995C22.2092 44.1498 23.3868 44.625 24.7917 44.625H39.6667V49.5833H19.8333V59.5H29.75V64.4583ZM69.4167 60.7396L79.3333 50.8229H59.5L69.4167 60.7396ZM59.5 29.75H79.3333L69.4167 19.8333L59.5 29.75ZM9.91667 79.3333C7.18958 79.3333 4.85503 78.3623 2.91302 76.4203C0.971007 74.4783 0 72.1438 0 69.4167V9.91667C0 7.18958 0.971007 4.85504 2.91302 2.91302C4.85503 0.971007 7.18958 0 9.91667 0H89.25C91.9771 0 94.3116 0.971007 96.2536 2.91302C98.1957 4.85504 99.1667 7.18958 99.1667 9.91667V69.4167C99.1667 72.1438 98.1957 74.4783 96.2536 76.4203C94.3116 78.3623 91.9771 79.3333 89.25 79.3333H9.91667ZM9.91667 69.4167H89.25V9.91667H9.91667V69.4167Z" fill="white"/>
</svg>
